# FamiTracker text export 0.4.2

# Song information
TITLE           ""
AUTHOR          ""
COPYRIGHT       ""

# Song comment
COMMENT ""

# Global settings
MACHINE         0
FRAMERATE       0
EXPANSION       0
VIBRATO         1
SPLIT           32

# Macros
MACRO       0   0  -1  -1   0 : 0 6 12 11 9 7 5 3
MACRO       0   1  -1  -1   0 : 0 15
MACRO       0   2  -1  -1   0 : 0 6 9 8
MACRO       0   3  -1  -1   0 : 12 11 10 9 9 8 8 7 7 7 7 7 6 6 6 6 6 6 6 5 5 5 5 4
MACRO       0   4  -1  -1   0 : 0 9 5 0
MACRO       0   5  -1  -1   0 : 0 4 4 3 3 2 2 2 1 1 1 1 1 1 1 1 0
MACRO       0   6  -1  -1   0 : 0 15 15 3 2 0
MACRO       0   7  -1  -1   0 : 0 15
MACRO       0   8  -1  -1   0 : 0 11 8 6 3 5
MACRO       0   9  -1  -1   0 : 0 15
MACRO       0  10  -1  -1   0 : 0 8 15
MACRO       0  11  -1  -1   0 : 14 15 14 9 4 2 1 0
MACRO       0  12  -1  -1   0 : 12 11 10 9 9 8 8 7 7 7 7 7 6 6 6 6 6 6 6 5 5 5 5 4
MACRO       0  13  -1  -1   0 : 12 14 15 15 15 15 15 15 15 15 15 15 15 15 15 15 15 15 15 15 15 15 15 15 15 14 13 12 10 7 4 0
MACRO       1   0   0  -1   0 : 0 2 -2
MACRO       1   1  -1  -1   0 : 12 0
MACRO       1   2  -1  -1   0 : 0 0 1
MACRO       1   3  -1  -1   0 : 0 0 1
MACRO       1   4  -1  -1   0 : 0 3 0 0
MACRO       1   5  -1  -1   0 : 0 0 5 2
MACRO       1   6  -1  -1   0 : 5 3 0
MACRO       1   7  -1  -1   0 : 12 0
MACRO       1   8   1  -1   0 : 1 0 -1 -2 -4 -5 -5 -5 -5 -5 -5 -5 -5 -5 -5 -4 -3 -3 -2 -1 -1 1 1 2 4 4 5 6 6 7 7 7
MACRO       2   0   0  -1   0 : 0 1 2 1 0 -1 -2 -1
MACRO       2   1  12  -1   0 : 20 -10 -10 0 0 0 0 0 0 0 0 0 -1 -1 1 1 1 1 -1 -1
MACRO       2   2   5  -1   0 : 0 0 0 0 0 0 1 1 1 0 -1 -1 -1
MACRO       2   3   5  -1   0 : 0 0 0 0 0 0 1 1 1 0 -1 -1 -1
MACRO       2   4  16  -1   0 : 0 0 0 0 0 0 0 0 0 0 0 0 0 0 0 0 2 3 -3 -2 -2 -3 3 2
MACRO       2   5   5  -1   0 : 0 0 0 0 0 0 1 1 1 0 -1 -1 -1
MACRO       2   6   0  -1   0 : 1
MACRO       4   0   0  -1   0 : 1 1 1 1 2 2 2 2
MACRO       4   1  -1  -1   0 : 0
MACRO       4   2   0  -1   0 : 2
MACRO       4   3  -1  -1   0 : 2
MACRO       4   4  -1  -1   0 : 1 1 1 0
MACRO       4   5  -1  -1   0 : 1 1 2
MACRO       4   6  -1  -1   0 : 1 1 1 3 3 3

# DPCM samples
DPCMDEF   0   161 "bde.dmc"
DPCM : A9 6A 55 3B FC 15 F0 87 03 8A 0A 1E A8 AA AA AA AA AA AA AA BA DB AE E9 5F 51 57 55 55 55 55 55
DPCM : 55 55 55 55 55 A5 52 A9 94 4A A9 4A 95 4A 29 95 52 AD 54 A5 AA AA AA 55 AB 5A 55 AD AA 56 B5 AA
DPCM : 5A 55 AB AA 5A B5 56 D5 AA AA AA AA 52 55 95 AA 54 AA AA AA 54 95 AA 2A 55 55 55 55 55 55 55 55
DPCM : D5 AA AA AA 55 B5 AA AA 6A 55 B5 AA 5A 55 B5 AA AA 5A 55 55 55 AA AA 4A 55 A9 AA 54 95 AA AA 4A
DPCM : 55 A5 AA 52 55 55 55 55 55 55 55 55 AD AA 6A 55 D5 AA AA AA AA AA 55 55 55 55 55 55 55 55 55 55
DPCM : 70
DPCMDEF   1   433 "s2.dmc"
DPCM : A9 AA 2A 2A C3 B7 9A E3 FF 1F 3D 60 00 78 18 0C 0B 02 00 40 DD D7 FD FF FF FF FF 3B F3 3E 26 A4
DPCM : 06 00 00 00 00 00 88 DB 36 7E 7E FE F3 FF FF FF 3F 17 80 00 0E 00 82 18 C3 01 83 09 F3 05 FF FF
DPCM : 7F D5 2D D6 C5 DE 93 EE 71 60 20 03 84 05 0E E3 09 A1 B1 47 F1 FD CF EF BF B8 37 06 E8 0F 58 F0
DPCM : 68 60 A6 C0 03 0C 83 F3 E6 3B 37 D5 8C 1D DF F3 E6 3B AF CA 1C 00 8C 30 20 8B 21 78 9C 86 F2 ED
DPCM : F7 4F 9F 5F 7C 88 FB 20 3E C6 81 03 47 40 88 B0 3A EC BA 65 B3 DF E9 F4 F9 49 6F 66 71 B0 98 10
DPCM : E4 98 40 58 E3 31 C7 62 FA FC F8 96 FF 06 6F 5D 68 B0 F3 40 C2 28 82 46 D1 38 57 E3 CE E5 78 8F
DPCM : 7A 07 EF 39 E7 50 60 66 0C 6B 4A E6 20 4B D8 C6 63 EA 9E D3 4D CF 79 1A 3A 3C F4 80 89 3E CA B2
DPCM : 8A C8 96 71 A9 F9 E4 74 6A D1 95 AD CB 61 1C C5 99 1A 57 B1 36 8A 66 91 D5 8C 97 3C 33 AB C5 87
DPCM : 6E E4 56 F2 28 AA 29 B5 B4 70 2B B3 AA A6 71 AA 2C A9 2D 2D B3 6A CA F2 68 3A 56 D5 A4 6A 1E A3
DPCM : AA AA 8A 71 59 52 CD 6A AB 9C AA A9 CA 66 B9 99 4A 33 AA AC A9 8E A3 32 29 CB 62 5D 65 AD A5 96
DPCM : AA AA 5A AD 6A 19 D3 A4 C9 32 A5 4E 55 B5 32 E6 92 B5 9A A6 6A AA 59 65 B3 9A 92 29 4B 2D AD B2
DPCM : AA 34 93 56 AD AA AA A9 AA 59 AA AA AA 65 55 99 AA AA E2 D4 AA AA AC AA D2 4C 55 CB AA 9A 3A D5
DPCM : A8 AA AA AA AA AA AA AA AA AA AA AA AA AA AA AA AA AA AA AA AA AA AA AA AA AA AA AA AA AA AA AA
DPCM : AA AA AA AA AA AA AA AA AA AA AA AA AA AA AA AA AA
DPCMDEF   2   545 "sd1.dmc"
DPCM : 09 00 5F BD 7F FF FF 7F 00 7F 00 00 00 00 00 00 FC 2F F6 FF FF FF FF FF FF BF 00 B8 00 00 F0 03
DPCM : 00 00 00 00 00 60 F9 8F FF FF FF FF FF FF 7F 00 7E 80 00 00 00 00 00 F8 2C 00 FC FF 80 BD FE FF
DPCM : FF FF FF FF 07 00 30 00 00 00 1C 00 03 F8 7F F8 FF FF 1F 10 FF FF F1 06 F4 03 00 8C C4 0F E0 3B
DPCM : FC 00 03 FE 01 FC 2F 55 07 F4 FF FF 29 A9 FF 04 14 00 1C A0 38 00 FF C0 3E F0 FF FF 1F F8 03 6E
DPCM : 02 CA 13 FF 0F 00 1C 8C 79 04 7E 9F A1 18 E5 C3 1F 5E FF 07 F8 F0 48 83 F8 2F 02 A1 1B 38 8B B8
DPCM : 8F 82 87 7F 70 D2 8B FF 77 0E 80 47 76 B8 EC 63 60 04 00 FF 0F DC C0 DF 2D 0F 93 72 DC F4 E8 97
DPCM : 8E 2F 80 8E 2B 06 11 FF 00 0B 1E 1F DE CE 56 8D 53 C7 FE 13 07 AA 62 1E 64 9E 52 8B 82 DE 13 70
DPCM : D8 FF 50 01 FE 77 80 6F DF AA 02 52 C7 B4 00 FE 59 47 25 AD 4D 15 C1 DF 1E 74 58 93 8A CA EF 16
DPCM : 07 F3 0E 14 87 7E FC 80 E0 43 27 AF 95 BD 06 D5 29 36 B6 34 59 55 2F A4 D6 52 55 CB 2E 14 5E 45
DPCM : 11 73 7E C7 4B D4 6B 30 55 4D EF 86 84 1E 50 B5 EA 35 75 69 44 6B 34 5B 5C 95 DA A9 17 34 B1 4D
DPCM : DD 81 4D 55 55 52 DA BD A8 34 A9 66 6C 0D F5 54 55 D5 54 55 75 56 5D B0 12 5E C1 9A B1 4D EB B4
DPCM : 43 17 69 75 2C 4B 95 D5 33 A8 5A 55 AD 52 4D 35 25 2B B2 66 57 55 55 71 55 8F 74 E3 64 B3 22 A9
DPCM : A5 D5 0A 76 6A 15 69 E8 57 D5 43 6A A5 B5 6A 9A 2B 76 4A 16 C5 16 57 95 56 74 25 2E 68 EB 55 55
DPCM : 55 4D 55 AD 6A E5 5A 94 AA 4B 4C A5 B4 D4 8A 96 34 59 6B 5D AD EA 8C DD A4 31 AD 18 33 55 55 89
DPCM : 4A 5B 67 A9 45 AB 95 A5 5A 55 35 8F 55 E9 A8 2A B5 AC A9 4A 55 32 19 B5 9D A4 5D 55 55 55 74 D3
DPCM : AA E9 AA 4A 54 55 6D 69 52 55 B4 54 95 AA 5A 57 55 55 35 55 4D ED A8 AA 5A 4A 65 55 B5 B4 52 55
DPCM : 69 45 69 AA B6 5A 55 55 55 AB 5C 6A AB 94 2A 55 59 55 55 55 55 55 55 A5 AA 6A 55 55 59 55 A5 AA
DPCM : 00
DPCMDEF   3   705 "A#.dmc"
DPCM : 37 C3 33 F8 3C 84 7B 7C 80 DF 7F 80 87 1F 81 F9 07 40 80 17 FC 87 FB 87 BF E0 AF BF 00 00 7C 80
DPCM : 7B C3 47 DC 7F 04 20 AE 05 80 FF FF 86 6F 00 1C FE 61 80 7F C0 05 50 25 BC FC FF 7F 5C FD DF 47
DPCM : 7D 00 05 5D 11 61 C6 09 80 3F 44 F8 07 F8 FF BF 00 AC 83 C0 BF 07 00 00 C0 03 38 28 EA FA FF FF
DPCM : AF FF FF 3F 04 FC 83 7A A8 82 BE 0A 00 F6 FF 03 D5 FC DD 3F 00 02 42 DC 43 20 28 02 00 E0 05 58
DPCM : 01 FC FF 3F F8 FF BF BF 82 9E 40 C8 3B C2 3D 33 D3 FC 7F 5D 05 FD FF 7F AA 02 00 EC 43 00 84 00
DPCM : 00 54 54 05 C0 FF 7F CC FC BF 3C 7B 20 AC 02 AA AA 2A EE 14 54 FE FF FF A1 FB FF 7F 88 02 20 BA
DPCM : 23 24 22 44 00 30 FC 22 C4 FD FF C3 DC 5F A5 1E 46 60 44 5C 98 41 D8 63 40 F5 FF FF 8A FC FF 7F
DPCM : 23 04 54 35 23 34 42 04 80 E2 EA 39 C4 FF 67 98 BE AF C6 BB 06 18 22 55 32 03 FC 47 00 FC FF FF
DPCM : CC DC FF 1F 05 00 84 99 11 66 06 04 40 55 7D 55 9C FF 57 A6 FB 3B C3 7B 23 C2 04 C3 33 30 BC 27
DPCM : 80 EE FF 7F AA BE FF AB 20 08 20 A8 1A 62 11 05 80 CA 33 33 CC FF CF CC FC 33 CC 7D 51 60 84 59
DPCM : 66 C0 F9 87 90 F7 FF BF 2A BE FF 3F 42 00 20 54 33 34 22 42 00 CA AB 23 6A FF 27 C6 EE 85 99 BF
DPCM : 21 18 46 E5 45 D1 F5 23 C0 FD FF 3F C3 D5 FF 5F 50 00 40 55 69 98 11 06 40 55 9E 61 E5 FF 69 58
DPCM : BD 58 CB 7B 03 C0 2A 33 43 C8 7B 23 A8 FA FF 37 66 FE FF 2B 06 04 80 E6 85 19 61 44 40 B5 3C C3
DPCM : BC FF CC CC 3C C3 DC 3F 04 A0 AA 1A 86 55 7E 86 50 F9 FF 1F E6 F9 FF 3B 00 03 20 CC 23 2C 23 04
DPCM : C2 C2 BD AA EA FA 4D E6 9D 61 BE 3F 02 84 E6 69 18 56 FE 41 84 FC FF C7 CC FC DF 57 03 40 40 55
DPCM : 43 34 43 04 84 55 9E 55 E5 F7 65 E6 69 C6 BD 8F 06 30 CC 2A 33 C4 FD 03 C2 FC FF 55 D5 DD FF 7B
DPCM : 20 00 21 1E 86 19 62 40 40 55 D7 D1 CC FB 33 B3 3C CC D3 3F 02 32 AC 2A 23 A2 F7 61 84 F7 FF A9
DPCM : EA BB FF AF 82 00 88 32 43 23 2C 30 20 CC AB AA CA FF 32 CC 2B E5 BD 67 08 98 99 61 86 91 F7 19
DPCM : 50 FF 7F 33 53 FD FF 37 04 20 C4 54 43 43 4C 28 40 E4 BD 21 9E FF 66 E4 69 E8 BD 67 08 54 B1 AA
DPCM : 32 C0 FB 23 C4 FD 7F 35 CC FD FD 17 43 80 A1 61 86 19 62 44 80 D5 79 19 55 FF 33 CC 3C CC B3 37
DPCM : 22 2C CC 2A 23 C2 FB 23 54 EF 7F 66 E6 F9 FB 1F 42 80 A1 2A 86 2A 34 42 C0 CC 3D 23 DC FF 32 C2
DPCM : AB C2 DD 1B 82 99 61 66 46 E0 F7 15 E4 FD BF 2A EA FC FB 37 42 20 34 4C 43 23 2C 42 C0 EA 8E 19
DPCM : 66
DPCMDEF   4   657 "B.dmc"
DPCM : 9D E1 19 BC 87 70 8F 0F F8 FD 03 1C 7F 00 F3 0F 00 C0 0B FE E3 FE F0 0F FE FC 03 00 E0 03 F6 86
DPCM : 8F DC 3F 02 10 7B 00 E8 FF 5F FC 02 E0 F0 C7 00 FF 80 03 B0 12 5E FD FF 9F AB FF 7B EA 03 08 7A
DPCM : 86 C0 8C 15 80 1F 22 FE 00 FF FF 07 C0 3D 00 FE 1E 00 00 C0 01 1C 14 75 FF FF FF F5 FF FF 23 E0
DPCM : 1F F4 50 03 7D 05 00 FD FF 82 AA BF FB 03 10 10 E2 8E 80 60 04 00 E0 02 AC 00 FF FF 87 FF FF FB
DPCM : 0B E6 01 21 77 C4 3D 33 55 FF 3F 57 C1 FF FF A7 2A 00 60 0F 01 80 00 00 54 54 01 F0 FF 9F AA FF
DPCM : CB D3 83 30 0B A8 AA 2A DC 13 54 FF FF 7F E8 FE FF 8F 08 80 E8 1D 88 08 44 00 30 FA 10 71 FF 7F
DPCM : CC FD 15 EB 21 82 11 71 91 41 D8 53 40 FE FF BF 28 FF FF 3F 44 40 D5 8C 50 44 04 80 E2 D6 1D F0
DPCM : FF 89 E9 FB 6A FC 19 60 44 98 29 03 FC 27 00 FE FF 5F CD FB FF 11 00 20 66 46 98 06 04 40 55 5F
DPCM : 19 E7 FF 99 B9 BF 33 DC 8F 10 13 C4 33 30 BC 13 20 FF FF AF AA FF BF 0A 02 80 60 2A 62 46 04 80
DPCM : AA AB 0A F3 FF CD CC 3F 23 EF 0D 81 11 56 65 C0 F9 47 E0 FD FF AF E2 F7 FF 43 04 00 50 CD 30 44
DPCM : 44 00 F2 F2 88 DA FF 45 EC 5D 58 FE 86 60 18 E5 85 91 F7 23 E0 FE FF 57 3C FD FF 41 01 00 55 A5
DPCM : A1 21 06 40 55 67 98 F9 BF 86 D9 8B B5 DC 0F 00 AB 2A 43 C8 FB 10 2A FF FF 8B EA FF BF 22 20 00
DPCM : 9A 8B 19 62 44 40 AE CE 30 EF DF CC CC 33 F2 FE 08 80 CC 1C 86 55 7E 22 54 FE FF 63 9E FF BF 21
DPCM : 10 80 30 0F 4C 23 04 A2 62 AF AA BA 3F 63 DE 19 E6 FF 08 10 E5 59 18 56 7F 10 22 FF FF D1 CC FF
DPCM : 7D 15 00 01 55 43 CC 44 04 44 55 67 55 F5 7D 66 9E 16 F7 7E 18 C0 B0 AA 32 C4 FD 81 30 FF 7F D5
DPCM : DC FB BF 0B 00 88 78 88 19 62 40 40 95 77 34 F3 7E 33 CB C3 CE FE 08 28 AC 32 23 A2 F7 12 E1 FD
DPCM : BF AA BE FB FF 0A 02 20 CA 0C 43 2C 30 20 F2 AA AA FA 4F C3 3C 53 DE 9F 21 60 99 61 86 D1 7D 06
DPCM : D8 FF 5F 55 D5 FF 7F 11 80 10 55 43 43 4C 08 50 74 5F 84 D7 7F 46 5E 62 F7 9E 21 90 A9 AA 32 C0
DPCM : FB 09 71 FF 5F C3 DC DF FF 28 00 86 86 86 19 62 84 40 75 5E 45 F5 3F C3 CC 23 CF DE 88 28 CC 2A
DPCM : 23 E2 FE 08 D5 FB AF 66 9E BF FF 08 01 86 2A 46 26 34 22 20 F3 CE 88 FB 2F 23 3C 0B F7 6E 08 56
DPCM : 21 66 42 B0 7D 01 39 FF AB 21 CE DB 3F 11 81 10 55
DPCMDEF   5   625 "C.dmc"
DPCM : D7 F0 14 CF 03 EE 79 80 FF 1F 70 F8 11 E4 1F 00 C0 05 FF B8 3F FE C1 9F 3F 00 80 0E B8 0F 1F BC
DPCM : 3F 01 88 3D 00 FC FF 87 6F 00 86 3F 06 FC 01 07 50 09 2F FF FF F7 F4 FF 47 3D 40 D0 13 11 19 27
DPCM : 00 3F 20 FE 80 FF FF 01 B8 03 E1 EF 00 00 00 0E 30 08 F3 FE FF FF FF FF 7F 04 FC A1 87 2A F8 2A
DPCM : 00 F8 FF 41 D5 DF FD 01 00 42 EE 08 00 23 00 00 17 50 01 FE FF C7 FF FF 7F C1 3C 10 78 07 EE 69
DPCM : A6 F9 FF 6E A0 FF FF 57 05 00 EC 01 80 10 00 80 B0 0A C0 FF 9F 99 FF E7 F6 40 64 01 99 55 E1 9E
DPCM : A0 FC FF FF F4 FE FF 47 04 40 BC 03 11 88 08 00 F1 45 C4 FE FF 98 FF 19 75 8C 40 22 2E 32 88 1E
DPCM : 03 F2 FF FF 45 FE FF 3F 22 90 AA 21 1A 88 00 10 5E EF 80 FF 37 B2 F7 35 DE 0D 30 30 2C 59 80 7F
DPCM : 02 F0 FF FF 66 FE FF 23 00 20 32 23 32 03 00 A8 EA AB 38 FF CF E2 FD 67 DC 1B 88 09 E1 19 84 77
DPCM : 02 74 FF FF 55 DF FF 0D 40 00 21 13 31 83 02 40 9D 99 91 FF 6F 66 7F 86 DE 1B 88 08 AB 32 60 FF
DPCM : 08 BC FF FF 15 DF FF 4F 08 00 A0 66 28 22 12 00 79 1E 51 FB 5F 62 F7 30 F3 0F 21 0C EB C4 E8 FA
DPCM : 08 DC FF FF 86 EB FF 0F 06 00 A4 49 31 03 03 A0 CA 0B 33 FF D7 C8 DE B0 7A 2F 00 56 65 46 E0 7D
DPCM : 08 D5 FF 7F C9 FC FF 17 81 00 30 17 33 22 42 20 97 67 E4 FD 9B 99 9E 61 F7 07 00 56 39 0C 2B 3F
DPCM : 03 32 FF FF C9 F3 FF 1F 80 00 44 1E A1 46 04 60 B1 57 65 DE 6F CC 3B 31 DF 4F 00 2C AF 30 2C FF
DPCM : 00 83 FF 7F 66 FA BF AF 01 00 A8 1A A2 19 08 88 2A 2F AB FA AF CC D3 E2 DE C7 00 46 66 55 88 FB
DPCM : 03 91 FF BF 66 7E FE 7F 10 00 C4 43 CC 90 80 80 2A 3F 9C B9 BF 59 79 98 DB 1F 80 46 99 89 C8 EE
DPCM : 23 C2 FB 7F 55 DF FD 7F 41 00 42 66 28 62 41 40 E4 55 55 F9 6F 61 97 D1 FB 33 04 32 13 33 0C EF
DPCM : 0B B0 FF 7F A6 EA FF 7F 08 00 A2 6A 28 62 42 80 C8 FB 10 EF DF 42 AF D0 FB 33 04 32 56 95 01 FE
DPCM : 47 C4 FE BF 86 DE EF 7F 84 80 D0 D0 30 03 23 02 CA BB 8C EA 7F 86 E6 61 67 2F 21 16 59 16 22 FE
DPCM : 47 A8 FE 3F CD 3C FF 7F 84 80 30 95 D0 84 06 02 96 77 22 EE 7F 46 5C 1A 7B 37 84 CC D0 CC 08 BE
DPCM : 2F C8 FB 7F C5 9C BF FF 81 40 28 A6 61 88 05 02 55
DPCMDEF   6   593 "C#.dmc"
DPCM : CF 70 83 F7 80 3B 1F F0 FF 01 C7 0F 90 3F 00 80 07 FF F8 1F 3F F8 FB 0B 00 70 C0 5E 7C 70 FF 04
DPCM : 80 3D 00 FC FF E3 0B C0 F8 63 C0 0F 38 40 25 BC FE FF 77 F5 FF 53 0F 10 74 03 91 B1 00 FC 80 FC
DPCM : 01 FF FF 01 F8 01 F8 3B 00 00 C0 00 83 A8 FB FF FF FF FF FF 04 7E A8 A3 82 BE 02 80 FF 1F 54 FD
DPCM : F7 07 00 40 F6 00 84 10 00 60 01 15 E0 FF 7F FC FF FF 07 3D 20 78 23 7E A6 69 FF EF 09 FA FF 7F
DPCM : 55 00 A0 07 00 10 00 80 A8 02 F0 FF 67 F9 7F 6E 0F 60 05 64 55 C5 9D A0 FC FF FF BC FF FF 44 00
DPCM : D0 1D 48 20 22 00 E0 47 C4 FE 7F E6 7F 62 0F 11 24 62 B1 20 7A 02 EC FF FF A1 FF FF 8F 08 A8 66
DPCM : A0 81 08 00 78 DD 21 FF 37 D4 F7 35 7E 05 44 8C 8C 09 F8 27 00 FF FF 6F EE FF 27 00 00 CB 88 4C
DPCM : 20 00 AA BE 8C FD 3F 8B FF 6E F8 1B 88 82 71 06 E1 4F 00 F7 FF 5F 7D FF 17 04 01 20 13 B1 88 00
DPCM : 50 67 15 F6 FF 66 F9 1B 76 2F 02 03 AB 32 30 7F 04 EF FF 7F F1 FD FF 20 00 80 9A 68 20 12 00 5E
DPCM : 47 D4 FE C7 F8 2E B2 DF 00 23 AC 8B C8 FB 08 DC FF FF E1 FA FF 43 00 80 1A 8D 0C 0C 80 CA 33 B2
DPCM : FF 35 AC 17 9D EE 07 40 65 16 82 F7 21 94 FF FF C9 FC FF 47 20 00 F4 42 23 22 02 6A 9D 91 F7 AF
DPCM : 99 9E 91 FB 13 00 65 8E B0 F2 0B A1 FC FF 33 F7 FF 1F 40 00 60 47 94 81 40 24 7B 55 76 BF 31 77
DPCM : 43 DF 4F 00 D4 53 0C CB 1F 22 F4 FF A7 99 FF BF 02 20 90 1A 92 89 00 A2 EA AC CA FF CA 5C 33 7B
DPCM : 1F 03 84 65 55 C8 FD 40 E4 FF AF E6 EE FF 07 00 10 8F B0 10 81 80 AA 3B 6A DE 6F 59 8E B9 FD 04
DPCM : 18 56 16 91 EE 23 C2 FF 5F D5 F7 FF 57 00 20 64 A2 81 05 01 98 57 55 F9 6F 98 67 F4 FE 44 20 B3
DPCM : B0 30 BA 2F A0 FF BF A6 EA FF 3F 02 00 A6 86 22 26 04 08 EF 23 CE FF 0C AF D0 DF 0D 81 8C 55 15
DPCM : E0 7F 20 FE FF 1A B9 FF 7F 04 81 50 4C 4C C4 40 A0 BA CB 28 FF 1B 99 63 6E 2F 11 85 55 19 C8 FD
DPCM : 14 EA FF D5 F4 FC FF 11 00 23 95 50 85 11 80 E5 6E C4 FD 67 E0 55 F8 DD 10 B2 B0 CC 00 FF 2B F0
DPCM : FF D7 D0 F9 FB 8F 08 A0 98 A2 81 05 02 99 9F 0A 55
DPCMDEF   7   561 "D.dmc"
DPCM : CF B8 E0 3D E0 E7 01 FF 0F 38 7E 40 FE 00 00 07 FF EC 8F 3F FC FE 00 00 0E EC C3 93 FD 13 00 3E
DPCM : 00 FC FF F3 06 10 FE 04 FC 80 03 54 E2 FA FF DF F5 FF D3 07 10 DC 00 26 27 80 0F C4 0F FC FF 07
DPCM : B0 03 F8 3D 00 00 20 C0 20 F2 FF FF FF FF FF 07 FC A1 87 82 BE 02 C0 FF 07 D5 7F 7F 00 00 F0 23
DPCM : 00 22 00 40 01 15 F0 FF 9F FF FF FF 90 0B C0 9B D8 CB D4 FE DF 0D FC FF BF 0A 00 F4 00 00 00 00
DPCM : 44 05 E0 FF 2F F3 7F B7 07 C8 00 AB AA D8 05 E5 FF FF EB FF FF 89 00 E0 0D 24 08 04 00 FC 08 FC
DPCM : FF 33 FF 8D 3A 22 44 70 91 10 3D 01 F9 FF 7F F2 FF FF 04 50 D5 40 03 09 00 D8 EE C0 FF 87 F5 BE
DPCM : F2 27 20 22 96 32 E0 2F 00 FF FF 37 F7 FF 05 00 A0 89 68 06 00 50 7D 19 FB 7F 99 7F 37 EE 23 50
DPCM : 10 2F 10 EF 04 F8 FF BF EA FF 2F 80 00 90 86 64 10 00 F2 AA B0 FF B7 EC 2F EC 3E 04 11 55 19 D8
DPCM : 8F E0 FD FF 1F FE FF 13 01 00 34 51 24 10 00 AF 03 DB FF 98 ED A2 F9 07 84 51 1E 92 F7 09 EC FF
DPCM : FF 38 FF 7F 08 00 D0 68 64 60 00 54 17 96 FF 1B D6 87 CE FB 00 A8 2A 03 BA 8F A0 FE FF 93 FE FF
DPCM : 23 10 00 B9 68 44 04 90 EB 8C FC DF 34 3B 23 FF 11 80 B2 62 54 7D 21 94 FF BF B9 FF 7F 00 01 40
DPCM : 0F CC 08 00 8B AF CA EE 37 76 1B FA 7E 02 60 A7 18 D9 1F 10 FA FF 4D F3 FF 57 00 80 D4 C0 12 01
DPCM : 44 E5 55 D5 7F 65 A7 C6 EF 63 80 C8 2A 23 F6 07 D0 FF 5F 75 F7 FF 03 00 C8 11 1A 12 00 54 DE 38
DPCM : BB DF B2 8E BC 7E 02 8C CA 24 D2 3D 06 FE FF AA FE FE BF 00 40 30 C3 C0 C0 00 F2 AA AA 7F 8D 3C
DPCM : 93 FF 19 40 96 91 11 DD 1B D0 FF DF 34 FD FF 13 00 30 35 0C 4C 08 40 F7 11 D7 BF D1 15 FA BB 01
DPCM : 64 AC CA 80 FB 41 EE FF 8D DC FF 1F 03 10 86 86 06 06 02 75 9E 51 FE 17 D3 23 B7 8F C0 30 2B 89
DPCM : D8 9F 50 FF AF 9A FB FF 23 00 A1 4A 98 50 24 C0 FC 44 FC 3F 11 CF F0 BB 01 96 91 65 80 FF 05 DE
DPCM : FF 8B 39 FF 7F 02 08 23 45 03 43 02 CC 67 45 55 55
DPCMDEF   8   865 "bark.dmc"
DPCM : 55 55 55 55 55 55 55 55 29 D5 5A B5 96 AA 54 A9 5A AB 54 55 55 55 52 DA 56 DB AA 52 52 55 55 25
DPCM : 69 B5 B6 4A 55 56 AB 2A A5 AA DA 2D 51 49 6D 4A 95 EA 56 BD 95 94 D4 97 80 24 75 AB 5B EB 96 D4
DPCM : 86 48 B2 BF 44 55 74 15 55 A9 5D DA AF 90 DA 57 00 88 DA AA BD 7D 97 6C 05 20 F2 3F 84 B5 B6 92
DPCM : AA 54 97 F6 2B E8 3F 01 00 74 49 DF FE 9F 50 0B 84 DE 13 80 FD 2D 91 D6 35 A5 FE 8A FE 02 00 E0
DPCM : 17 E8 EF FF 03 7A 40 F6 05 00 F4 7F D1 05 FE 92 F6 DF 1B 00 00 E0 0F FA DF FF 00 7E 80 3F 00 02
DPCM : FF 1F 5C 80 7F DA FF 0F 00 00 05 FA EF FF 82 6E 91 5F 00 00 F0 FF 45 22 F6 DD FF 0F 00 00 58 E9
DPCM : 5F F6 4B FF 1F 00 00 60 D7 7D 95 76 FD 3F 00 00 F0 93 7E 55 22 FB FF 03 00 E0 5F C0 2F 2B F5 FF
DPCM : 0F 00 00 5E C8 7F 5B D2 FF 1F 00 00 78 4D 76 D5 76 FF 0F 00 00 FE 40 77 AB D4 FF 1F 00 00 FC 2F
DPCM : 92 AA EA FF 3F 00 00 7E 2D 51 2A DA FF FF 00 00 F0 57 E8 92 DA FF 3F 00 00 F0 FB 4A 55 90 F7 FF
DPCM : 01 00 F0 FF 00 4B EC FE FF 01 00 E0 D7 55 B4 A2 DE FF 07 00 80 FF 11 2B 69 F7 FF 01 00 80 FF 2B
DPCM : 55 44 FD FF 03 00 00 FF 3F 40 AD DE FF 07 00 00 FE 3F 90 AA FA FF 07 00 00 FE 3F 88 54 F7 FF 03
DPCM : 00 00 FE FF 01 16 DD FF 07 00 00 FE FF 01 68 FD FF 07 00 00 FC FF 01 9A FC FF 07 00 00 F8 FF 03
DPCM : 68 FB FF 07 00 00 F8 FF 07 98 F4 FF 0F 00 00 F8 FF 0F 80 FA FD 7F 00 00 E0 FF 07 60 D5 FF FF 00
DPCM : 00 80 FF 3F 80 A2 7E FF 0F 00 00 FC FF 90 28 F5 FF 1F 00 00 F8 FA 53 55 E1 FD FF 00 00 80 FF 3F
DPCM : A0 22 7B FF 1F 00 00 7C FD 0F 20 A8 7F FF 7F 00 00 00 DE FF 04 AE F6 AF FE 07 00 00 E0 FF 1F 90
DPCM : 52 FD AF FF 08 00 00 FC B5 0B 74 77 FF 97 BA 00 00 00 F8 FF 5F 55 49 ED DB AE 00 12 80 B6 F4 DE
DPCM : B6 54 77 77 13 A0 4A A0 5F 89 92 DA 57 55 55 BB 52 49 AA 55 55 BD 42 2A A4 5B AA 55 5B DF 55 22
DPCM : 15 41 5F 55 4B 52 AA 56 A9 DB DB 5A 95 08 01 DD 5B 2B 25 55 D5 5A 55 D5 DE 4D 82 00 D4 FD DD 36
DPCM : 11 C9 AA 92 CC 7A 6F 56 4A 12 B2 B6 D5 B6 52 55 94 08 51 F6 FF AF 94 10 25 A9 6A 55 6D BB AD 22
DPCM : 00 51 BB DF BD 2A 95 48 92 D2 DA 55 DB A5 94 4A 09 AA 6E DB B6 B5 08 91 DA 56 55 55 D5 AA AA 4A
DPCM : 91 D4 D6 56 6D B5 2A 94 54 AD D6 56 49 55 D5 AA 2A 55 A4 B2 5B 55 55 D5 AA AA 52 4A DA 56 55 55
DPCM : 55 55 D5 AA 54 A9 AA A4 DA 6A D5 AA 55 A9 52 55 45 69 AD B5 6A 95 52 55 55 29 55 5B 55 55 55 A5
DPCM : D5 56 49 95 55 55 2A AD AA B5 AD 4A 24 59 5B 55 55 55 55 55 AB 94 AA 55 55 55 55 A9 56 55 A5 AA
DPCM : D5 52 55 55 55 B5 AA 52 55 A9 AA AA AA 6A 6D AB 92 54 A9 AA 52 AB 55 D5 5A 95 54 55 55 55 A5 94
DPCM : 75 55 AB 54 AD 54 95 AA 4A 75 55 6D 95 52 59 55 55 55 AA 55 B5 2A 55 55 B5 54 55 95 AA AA AA 59
DPCM : B5 AA 2A 55 69 55 55 AA 54 6B B5 AA 52 55 B5 AA 54 11 B5 6D 6D A5 52 D5 2A 95 AA D4 5A B5 A9 54
DPCM : 55 4B 55 A5 54 6B D5 54 AA D5 B5 A4 94 A4 DA 56 AD 54 55 D5 AA 52 51 DA 55 AB 52 55 55 55 55 55
DPCM : 55
DPCMDEF   9   193 "click"
DPCM : 15 9C C7 71 8E E3 9C 63 8C 39 E2 70 9F 63 18 F2 CF 31 80 1F EF 31 04 F1 3F 72 28 E0 FF 41 65 D0
DPCM : F7 84 63 C2 77 8E 14 CB 74 0F 55 03 FD 13 6D 81 3E 65 2F B0 15 DD 45 35 C5 56 D5 2A 55 55 55 2B
DPCM : 55 95 55 55 AB 54 55 35 4B 35 95 55 4E 53 C5 A1 0E 3F 7F 18 00 E0 FF FF 0F 00 00 FF FF 01 00 F8
DPCM : FF 0F 00 E0 FF BF 00 00 FF FF 09 00 F0 FF 1F 00 50 FD BF 05 04 DA F7 2D 44 50 7B DF 84 08 75 F7
DPCM : 55 44 A4 76 B7 92 44 D5 75 4B 52 54 5D B7 12 25 B5 B5 55 52 4A 5B AD 29 95 AA D5 AA 54 AA 56 AD
DPCM : 4A A5 AA 55 AD 54 A9 5A 55 55 55 55 55 55 55 55 55 55 55 55 55 55 55 55 55 55 55 55 55 55 55 55
DPCM : 55
DPCMDEF  10   593 "eh"
DPCM : 55 D5 7F 80 83 94 FC 87 7E 22 A1 17 D5 5D 95 6A 05 B5 F5 17 E8 40 55 7D C9 2D 52 B4 93 FE E1 0F
DPCM : 40 D0 4B F6 A5 C1 FF 03 7C 00 F8 0F FC 03 C0 0F F8 0F FC 33 C0 0F F0 D6 0F 7E 00 4F 3F F0 0F 30
DPCM : F0 AF 3F 30 00 7E FB C1 07 F0 C5 3F C0 03 FE 07 F4 0F F0 07 FC 01 FC 1F 78 80 E1 1F FC 3F 80 3B
DPCM : 00 7F 90 FF 03 0E 3F 80 1F F8 7F 00 3E 80 F9 1F F8 00 E0 FF E3 01 00 FF E3 0F 04 FA A7 3F 40 42
DPCM : 3F FC 0F 45 1E E0 FF C0 4F 80 FE F7 C0 05 F0 07 FF 3F E0 03 E0 DF 7F 48 01 FE D8 FF 01 40 30 FF
DPCM : 3F 80 0F 80 F8 E1 7F C0 00 CE FD 81 1F 00 F3 0E FC 03 3C FE 00 0F 40 FF 71 FC 03 D8 03 F0 67 FC
DPCM : 1F 08 73 00 FF 87 3F 10 E0 17 FF 3F 80 05 F0 FF 4F F9 00 40 9E FF 1F C0 00 EE 3F EE 00 07 78 CC
DPCM : 73 BE 41 0C 67 F8 C7 80 3F F0 77 04 EC 90 AF 7A C0 1F BC C0 07 76 DE C0 0F F0 79 1F 60 80 C7 FE
DPCM : 77 00 60 FC DF 1C 24 E0 07 7F FE 00 05 AA FE 0F 3C 30 E0 8F FF 37 00 0C E8 FF FF 40 01 18 FF F7
DPCM : 06 51 E0 0F FE 41 A5 1A FC 53 D1 01 55 7E F8 23 0C 5D F8 77 04 54 01 FF FD 92 01 10 DF BC CE 09
DPCM : 85 36 1E F5 84 17 3D E5 23 05 5B 7A 5D 29 15 7A BC F1 05 06 F8 C3 2F FD E0 06 1D F0 85 2F 3D A5
DPCM : 25 B1 65 95 5D 55 74 A3 4A DE A0 0D 6F DC 87 2E 14 C1 57 B6 7C 83 A5 54 69 95 D6 54 85 37 71 8B
DPCM : A5 DC D0 36 55 68 07 6E D4 E2 4E DA 52 A5 1C D6 EA 94 6A A1 6D D6 54 89 6C 96 6B 5B 91 5A 68 9B
DPCM : B3 AC 45 2D B9 B4 95 AA 95 55 75 52 A5 1A 75 55 57 B5 42 97 AC CA 2A 55 65 55 55 55 55 D5 25 55
DPCM : 53 D1 A5 34 B5 A9 56 55 56 29 9D B1 2A 2B 6C C5 4B 6E A9 C6 2A D5 52 55 69 95 B6 AA AA 2A 95 55
DPCM : B5 AA 95 6A 55 55 59 65 96 56 55 55 55 56 6A 55 55 55 55 55 B5 CA 2A 55 55 55 D5 54 55 55 55 55
DPCM : D5 54 55 55 55 55 55 55 99 6A 69 55 55 59 55 55 55 55 A9 6A 55 95 AA AA AA AA AA AA AA AA AA AA
DPCM : AA AA AA AA 9A AA 56 69 55 55 55 55 55 55 55 55 55 55 55 55 55 55 55 55 55 55 55 55 55 55 55 55
DPCM : 55 55 55 55 55 55 55 55 55 55 55 55 55 55 55 55 55
DPCMDEF  11   897 "Palamedes_$FC00.dmc"
DPCM : 55 55 55 55 55 55 D5 AA D5 37 02 00 F4 A3 FF FF 7F 00 2A 00 00 80 FF FF FF 7F 05 00 00 E0 FF 1F
DPCM : C0 FF 17 00 F0 FF C0 89 FF 00 00 E0 FF FF FF 03 00 00 00 FA FF 3F 00 EC FF 7F 00 FF 7F 00 E0 08
DPCM : 00 F8 F7 FF 07 0E 90 00 80 FE FF 7F 00 C0 FE 7F 7F 01 FE 2F 00 8C 00 80 FF FF 4F 00 C0 7F 00 F8
DPCM : 0F FC 07 F0 7F FF A6 BF 40 5B 00 C0 0A 01 FB 8B FE 04 00 FC FF 00 FC 04 FE 91 FB FF 1F E0 FF 03
DPCM : 00 00 60 7F 2B 48 C0 FF 02 D0 FE 1F 00 FE 09 FA A5 FF FF 21 A2 FF 01 00 04 B0 EF 17 81 1D C0 FE
DPCM : 0F 54 0B AA FA 3F 00 FF FE FF 00 F4 57 02 00 89 A4 3E 50 FF 0F 80 FF 0B 01 EA C4 FD 27 DA B6 FB
DPCM : 2F E0 85 56 02 C0 0B A8 90 BA FF 2F 80 FD 07 C0 56 D2 FE 83 FF 89 4F A5 D6 0A 24 01 FC 03 F0 02
DPCM : F8 FF 6B 52 BB 09 80 BE BD 84 F6 7F DF 09 00 FB 4B 00 D0 8A 4A 55 49 FD AA FA AD 5A 05 08 7B B7
DPCM : A2 52 FF FF 03 00 6D 2B 40 52 13 D1 B6 EA AB 42 ED 7F 12 92 5A 51 9F A8 4B DB B7 AF 40 4B 00 D0
DPCM : 2E 91 AA AA FD 1F 01 F6 BF 08 AD 64 2B 95 FA 26 B5 A5 7E A9 2A 01 10 D8 2B B1 EA BE 7D 25 49 6D
DPCM : 15 A9 6B 95 C8 EA DD 49 52 5B 2B 49 13 41 88 D4 F7 91 FA BE 6D 25 28 95 D4 5E 55 85 B6 BD 64 4B
DPCM : 52 AD 88 6A 25 08 6A FB AA 55 6F FB 91 54 09 A8 AD DA AD 24 BB 5D 05 A9 49 92 BA 92 24 59 6D 57
DPCM : DB 56 D3 2E AD 2A 08 B0 7B 5B 49 DB 57 49 22 A9 92 64 2B B5 95 A4 B7 6B B5 6A 25 B5 55 22 A4 B2
DPCM : ED 4A 7D 17 A9 89 D4 04 50 DB DB 15 EA B6 6A 9B D4 96 A4 5A 49 55 49 6C AF 76 95 54 55 55 02 A8
DPCM : 56 DB 5E 69 5F A5 52 6D 25 89 6A 5B AA 24 B5 55 DB 25 69 95 54 95 20 B5 6A DB F6 6D 92 5A 95 2A
DPCM : 41 EA 2B B5 52 5A AB 52 6D AB 92 50 B5 52 25 A9 ED 6B B7 91 AD 24 95 24 A5 56 6B B5 B6 25 A4 B6
DPCM : 55 49 A2 D5 4A 55 95 D6 6D 6D AB AA 44 29 95 54 A5 6A DF A6 4A A5 AA 92 54 55 B5 2A B5 B5 AA 54
DPCM : 7D AB 2A 11 D5 54 92 AA DA B6 D5 56 52 25 29 95 AA 56 A9 7B 55 55 2A DB AA AA A4 52 2A 55 55 AD
DPCM : AA 76 5B 49 15 52 55 A9 D4 B6 B5 D5 5A A9 54 49 B5 9A 4A 89 DA 4E 49 6B B5 AD 2A 29 A9 92 CA 6A
DPCM : AB B6 55 DB 54 4A 85 AA 55 AA AA 6A 55 55 95 D5 AA AA 55 09 95 AA B6 95 DA B6 B5 92 4A 49 95 A4
DPCM : B6 AA 5A B5 6A 55 52 AA DA 56 92 54 B5 AA AA B5 AD 56 A9 2A 25 49 AA 5A B5 5A B5 6A AD 24 A9 AA
DPCM : B4 6A 55 A5 6A 55 AB 55 D5 CA AA 24 49 AA DA 54 AD 6B 55 95 AA 56 82 5A D5 56 53 D5 6A 55 A9 AA
DPCM : 6A 55 49 A5 4A A9 55 B5 6D 55 55 55 95 A4 92 6A AB 55 6B 55 55 55 A9 4A A5 D6 4A A5 4A 55 6D AB
DPCM : AA 55 55 95 92 54 B5 52 AB 6D AB 54 6A 2B 25 4A 55 AB 55 95 5A 55 5A B5 6A 55 A5 52 95 4A 55 AD
DPCM : B6 B5 AA 54 55 95 24 55 55 AB 6A 6B A9 52 AB AA 52 AD AA 52 A5 D4 AA D5 5A B5 AA 54 52 AA AA 52
DPCM : 55 B5 6D 95 AA A9 AA 4A AA 5A 55 55 55 55 A9 55 5B B5 94 2A 95 AA 54 55 AD D6 56 55 55 95 52 A9
DPCM : 6A AA 5A AD 5A 29 55 AB AA AA AA 2A 95 54 B5 AA 5A AB 55 AB 24 55 55 55 AA 6A D5 AA 55 55 AA AA
DPCM : 54 55 AB 54 AA 55 A9 AA D5 5A 55 55 A9 52 95 AA AA 55 B5 6A 55 55 4A 55 55 95 55 55 55 2B 55 55
DPCM : 0F
DPCMDEF  12   129 "NinjaGaiden2_$FE00.dmc"
DPCM : AA 00 29 CB 1B 3C FE FF 39 1F FF 83 D8 A1 02 3A 00 20 0E E7 01 4B FC 2E CA 87 03 8F B6 17 1F BE
DPCM : E9 1F BE 6D FD F4 F2 BD 9A C0 D2 03 00 2A 00 00 80 25 88 5A B5 FD 5C BB 3F D5 7F AF 4F AB D3 65
DPCM : 27 17 F6 52 56 A5 56 A4 03 55 84 08 41 A4 20 52 55 95 5A B5 BD 5A DD D6 EF B5 5E 5F 7A 5D 5B 4D
DPCM : A5 97 A4 4A 56 A5 48 24 15 04 11 A0 02 4D A5 AA 72 5D AB ED 6D EF BE B5 BE AD 69 37 55 56 AD A4
DPCM : 92
DPCMDEF  13  1025 "TMNT3_$E300.dmc"
DPCM : AA A6 AA 6A A9 AA AA AA 2A 2B D3 AA AA AC 2A AB AA AA 6A 55 B2 95 D2 6A 95 B4 AA AA 52 9B E8 89
DPCM : 9B DC A4 25 AB AA AA 95 AA AA A4 55 CA D5 D6 96 A4 5A 69 55 CA 5A 49 56 A4 57 D5 5F A4 A8 26 B5
DPCM : 2A B5 8A 6E 49 54 FD FA 01 46 74 D5 05 FC F7 24 01 E0 FF 0F 78 00 EC BF AD 16 13 08 2A FE 1F B8
DPCM : 14 E0 FF 1F 12 E0 0F 00 FD 1F 78 F0 FF 3F 00 10 FC 1F 00 F8 07 7E 1F FC 19 60 27 FC 01 C0 7F F8
DPCM : B1 80 FF 03 02 80 FF EB FF 03 00 07 FE 3F 00 00 FC FF FF 07 00 3C FE 3F 00 00 FE 87 FE 07 04 FE
DPCM : F0 FF 01 00 FC 03 FF 03 00 5F FF FF 03 00 80 F4 FF 00 00 FF FF FF 03 00 08 FD FF 03 00 E8 FF 7F
DPCM : 00 00 C2 FF 4F 00 00 FF FF 1F 00 E0 FF FF 03 00 C0 FF 7F 00 78 C0 FF 1F 00 00 FF 3F FE 00 F0 CF
DPCM : FF 01 00 78 81 FE 87 1F 8F 2F EA 01 80 77 01 FF 07 FF 04 F0 1F 00 FE 00 FC FF 2F 02 00 FF FC 03
DPCM : 00 C0 FF 3F 1F 00 F0 FF E1 00 E0 FF FF 00 00 FC FF 1F 00 68 F0 FF 01 F0 A0 FF 1F 00 C3 87 FF 81
DPCM : 07 F8 F9 D1 05 E0 03 BE 3F E0 0F E0 7D 78 08 01 FE 87 FF 17 80 E0 FF 08 F0 01 FE FF 9D 03 00 FB
DPCM : 83 1F 00 FE 7F 1F 00 80 7F FC 03 04 F8 FF C7 03 00 E9 FF 00 07 F0 FF 3F 00 08 F8 FF 36 40 E0 FF
DPCM : 07 E4 01 FC F3 0F C0 F1 E1 87 F1 01 87 FF 07 C2 0F B8 38 1F 7E 00 FE 3C DC 01 20 FF 93 3F 00 3C
DPCM : FF 1F 10 80 FC F8 3F 80 E0 FB 0F 02 80 CF FF CF 01 80 FF 67 00 01 FE DF EF 03 00 BF 3F 00 00 FC
DPCM : FF 7F 00 F0 F2 1F 00 20 FE DF 3F 00 55 F8 F9 01 C0 0F FB CF C1 07 48 BF 03 E0 0F FC 73 5C 0F 60
DPCM : E3 30 FA 04 FF 18 7F 96 C0 60 E8 FF 80 0F 6C FE E3 03 00 80 FF EF 0F 00 EF FB 1E 00 80 FF FF 00
DPCM : 00 BB FE DF 01 00 DB FF 03 01 90 FF FF 03 00 E0 FF 1F 10 80 FF FF 01 00 80 FF FF 01 00 FE FF 0F
DPCM : 00 80 FF FF 03 00 E0 FF 3F E0 00 E6 FF 1F 00 00 FF 7F C3 01 D0 FB 7F 03 00 E0 FF C7 07 00 E3 FF
DPCM : 0F 80 01 FC EF 2F 10 C0 FB 7F 0A 08 C0 BE FF 79 00 82 FC FF 01 00 B8 FE FF 15 00 E0 FF 3F 00 00
DPCM : F0 FF FF 01 00 E0 FF 5F 01 00 FF FF 3F 00 00 FC FF 07 00 C0 FE FF 0F 00 E0 FF FF 00 00 C0 FF FF
DPCM : 03 00 3C FE 3F 00 00 FE FF FF 00 00 FC FF 0F 00 C0 C7 FF 3F 00 80 7F E2 7F 00 60 F7 F7 F3 00 C0
DPCM : E8 E0 FF 01 E0 C7 F1 7F 28 00 70 1F FE 07 70 18 FE FF 0F 00 E0 E1 FF 1F 00 E0 F1 FF 03 00 E0 FF
DPCM : E1 3F 00 38 FE FF 01 30 C0 7F C2 FF 80 C1 8D DF 81 07 8C EF 01 FE 07 4E 01 FC 3F 9F 02 B8 00 FC
DPCM : 7F 3C 00 E0 FF FF 01 00 1E F8 FF 21 00 F0 FF FF 07 00 C0 E3 FF 07 00 06 FF FF 1F 00 00 BF 17 7D
DPCM : C0 20 FF FB CB 01 80 F8 07 C1 3F E4 23 DF 7E 78 10 0C 3A C8 F7 7B A0 58 CE BF E1 00 00 FF 81 FF
DPCM : 03 07 C3 FF BD 00 01 78 BF E1 3F C0 E0 E9 FF C0 00 0E F6 8F E2 39 F0 E1 7C 35 B0 47 70 F6 31 D0
DPCM : 3D F8 49 78 E8 F9 38 61 F8 08 F8 27 FE 00 F8 17 FE B1 88 34 1E E0 5F E0 C1 EB A7 F1 83 03 2E 47
DPCM : 01 7F C0 1F FE 13 BA 0F 3C 88 0F 02 FC 0F FE 41 7B 88 FF C0 0D C2 02 F6 BF F0 07 38 27 FA 1F 70
DPCM : 02 7C 80 FF C3 97 02 8B DB 5F 01 F7 00 1E F8 3F 78 03 18 1F 7F 8D 0F 5C 80 65 7E 0F 2E 06 1E 58
DPCM : FF DC 0F 0C 21 F0 BB FA B1 00 F0 C1 FF F3 1B 00 03 F0 FF F4 03 08 C4 DF FF 65 41 20 1A FE 0F FA
DPCM : 01 D8 70 FC 0F 3E 83 4E 01 FC 3E FC 05 9C C0 FA F0 3F 70 0A A0 0F FF E3 17 40 38 F0 BF FC 40 E0
DPCM : 01 F7 FD CB 07 00 D2 E2 5F 5B 2D 00 1F AC FE 57 35 21 70 11 DF 3E B6 01 56 42 B9 F5 2F 9B 20 91
DPCM : 0F F7 CB 63 40 C5 E0 D2 FB 83 87 03 BB C1 7F 99 11 50 07 1F AA 6F 0B 6F C0 67 E4 6D F8 0A AB 90
DPCM : FF
DPCMDEF  14  1841 "honk"
DPCM : 55 55 55 55 55 55 55 55 55 D5 2A 55 55 AA 6A 55 55 AD 5A 2A 95 AA AA AA 56 6D 5B 41 4A 7C 45 2D
DPCM : DB 1F 0F 60 E0 17 78 F4 FF F0 00 83 4F C0 F1 FF C3 03 0E 3C 01 C7 FF 2F 03 1C F8 04 38 FF 3F 0E
DPCM : F0 E0 00 38 FF 7F 3A E0 C1 01 B0 FC FF 79 80 07 07 40 F9 FF F7 00 0F 06 80 E3 FF DF 01 1E 1C 00
DPCM : C6 FF BF 07 3C 38 00 94 FF 7F 07 78 70 00 18 FF FF 0F F0 E0 00 20 FF FF 3D E0 81 01 A0 FC FF 7F
DPCM : 80 83 03 80 F8 FF FF 00 0F 0E 00 E2 FF FF 01 1E 0E 00 E2 FF FF 07 1C 38 00 84 FF FF 0F 78 70 00
DPCM : 80 FF FF 1F F0 60 00 20 FE FF 3F E0 C1 01 00 FC FF 7F C0 83 03 80 F8 FF FF 00 0F 07 00 F0 FF FF
DPCM : 01 1E 1E 00 E0 FF FF 03 3C 1C 00 C0 FF FF 07 78 78 00 00 FF FF 1F F0 70 00 00 FF FF 3F E0 E1 00
DPCM : 00 FC FF 7F C0 C3 01 00 FC FF FF 80 07 07 00 F0 FF FF 01 0F 07 00 E2 FF FF 03 1E 0E 00 C0 FF FF
DPCM : 07 3C 3C 00 80 FF FF 0F 78 70 00 00 FF FF 1F F0 F0 00 00 FE FF 3F E0 C1 01 00 FC FF 7F C0 C3 03
DPCM : 00 F8 FF FF 80 07 07 00 F0 FF FF 01 0F 0F 00 E0 FF FF 03 1E 0E 00 C0 FF FF 07 3C 3C 00 80 FF FF
DPCM : 0F 78 70 00 00 FF FF 1F F0 F0 00 00 FE FF 3F E0 C1 01 00 FC FF 7F C0 C3 03 00 F8 FF FF 80 07 07
DPCM : 00 F0 FF FF 01 0F 0F 00 E0 FF FF 03 1E 1C 00 C0 FF FF 07 3C 3C 00 80 FF FF 0F 78 38 00 00 FF FF
DPCM : 1F F0 F0 00 00 FE FF 3F E0 E1 00 00 FC FF 7F C0 C3 03 00 F8 FF FF 80 87 03 00 F0 FF FF 01 0F 0F
DPCM : 00 E0 FF FF 03 1E 0E 00 C0 FF FF 07 3C 3C 00 80 FF FF 0F 78 70 00 00 FF FF 1F F0 F0 00 00 FE FF
DPCM : 3F E0 C1 01 00 FC FF 7F C0 C3 03 00 F8 FF FF 00 0F 07 00 F2 FF FF 01 1E 0E 00 E0 FF FF 03 3C 1C
DPCM : 00 C8 FF FF 07 78 70 00 80 FF FF 0F F0 E0 00 20 FF FF 3D E0 C1 01 40 FE FF 7B 80 83 03 40 F9 FF
DPCM : F7 00 0F 07 00 F9 FF CF 01 1F 0C 00 E5 FF DF 03 3C 38 00 D4 FF 3F 07 78 38 00 94 FF 7F 1E F0 E0
DPCM : 00 50 FF FF 38 E0 83 01 D0 FE FF 38 C0 07 13 C0 FE 7F E5 00 1F 0C C0 FA FF C5 01 7E 50 00 F7 FF
DPCM : 25 07 FC 40 01 DA FF 1B 1E F0 41 11 D8 FF B3 38 E0 07 85 D0 FE 67 E3 80 1F 14 41 FF 97 A6 05 3F
DPCM : 90 04 EF 1F 9D 0C 7E C0 12 BC BF D8 54 F8 01 4B E1 77 C3 93 D1 07 AC 44 5F 2B 5B 26 2F D0 4A 7C
DPCM : AD B4 69 BC 40 AB E4 D6 54 AB AA 43 B4 4A 5B 55 55 AB 96 48 9B B4 55 55 B5 6A 52 6C A9 5A 55 55
DPCM : D5 2A A9 95 6A 55 55 55 B5 94 5A AA 56 55 55 55 55 65 AA 5A 55 55 55 55 55 A5 6A 55 55 55 55 55
DPCM : 55 6A 55 55 55 55 55 55 AA 5A 55 55 55 55 A5 AA AA 6A 55 55 55 95 AA AA AA 55 55 55 55 A5 AA AA
DPCM : 56 55 55 55 95 AA AA 6A 55 55 55 95 AA AA AA 56 55 55 95 AA AA AA 5A 55 55 55 AA AA AA 6A 55 55
DPCM : 55 AA AA AA AA 55 55 95 AA AA AA AA 5A 55 95 AA AA AA AA AA 55 55 A9 AA AA A5 AA 5A 55 A9 AA AA
DPCM : 55 AA AA 55 A9 AA AA 9A AA AA 5A A9 AA AA AA AA AA AA AA AA AA AA AA AA AA AA AA AA AA AA AA AA
DPCM : AA AA AA AA AA AA AA AA AA AA AA AA AA AA AA AA AA AA AA AA AA AA AA AA AA AA AA AA AA AA AA AA
DPCM : AA AA AA AA AA AA AA AA AA AA AA AA AA AA AA AA AA AA AA AA AA AA AA AA AA AA AA AA AA AA AA AA
DPCM : A6 AA AA AA AA AA AA AA AA AA AA AA AA AA AA AA AA AA AA AA AA AA AA AA AA AA AA AA AA AA AA AA
DPCM : AA AA AA AA AA AA AA AA AA AA AA AA AA AA AA AA AA AA AA AA AA AA AA AA AA AA AA AA AA AA AA AA
DPCM : AA AA AA AA AA AA AA AA AA AA 4A AB AA AA AA AA 2A 55 AB AA AA AA AA 4A AB AA AA AA AA AA AA AA
DPCM : AA AA AA AA AA AA AA AA AA AA AA AA AA AA AA AA 2A AD AA A9 AA AA AA AA AA 6A AA A5 AA AA AA AA
DPCM : 55 55 AA D2 AA AA AA 55 A5 4A D5 AA AA 6A 95 2A 55 AB AA AA 55 A5 54 AD 9A AA 56 55 4A B5 56 A5
DPCM : 5A 55 49 55 5B 95 6A 55 25 69 6D 95 AA 55 95 A8 AD 55 AA 56 55 A4 DA 56 A9 56 55 91 6A 57 95 6A
DPCM : 55 25 D2 6E 55 AA D5 4A 48 DB 55 D1 56 2B 41 6D 37 45 5B 6D 04 DA BE 11 5E F5 02 70 FB 43 F0 CB
DPCM : 0F 80 EE 2F C0 9F 3E 00 F4 7F 80 AF 3E 00 C4 FF 83 0F 3F 00 C4 FF 07 1E FD 00 90 FF 03 7E FA 00
DPCM : 90 FF 0B 3E FC 00 10 FF 0F 7C FC 00 50 FE 0F FC F8 00 50 FE 0F F8 F1 03 C0 FC 0F F8 E3 03 C0 FC
DPCM : 2F F0 E3 03 C0 FC 4F F0 C3 07 40 F9 3F F0 E3 03 C0 F8 3F E0 A7 0F 00 F3 BF E0 87 0F 00 F3 BF C0
DPCM : 8F 0F 00 E3 FF C0 4F 1F 00 E4 FF C0 1F 1F 00 CC 7F 81 3F 3F 00 C8 FF 82 1F 1F 00 CC FF 02 7F 7C
DPCM : 00 90 FF 03 7F 3E 00 90 FF 03 7F 7C 00 90 FF 03 FE 7A 00 30 FF 0B 7E FC 00 20 FF 0B FC F1 01 40
DPCM : FE 0F FC F9 00 40 FE 0F FC F1 01 40 FE 0F FC E9 03 00 FE 2F F8 F1 03 80 FC 2F F8 E3 03 00 FD 2F
DPCM : F0 EB 03 00 F9 3F F0 E7 07 00 F8 3F F0 E7 07 00 F8 BF E0 A7 0F 00 F2 BF E0 8F 0F 00 F2 BF E0 8F
DPCM : 0F 00 F2 BF C0 9F 0F 00 F2 BF C0 9F 1F 00 E0 FF C0 9F 1F 00 E0 FF C0 9F 3E 00 E0 FF 80 BF 1F 00
DPCM : C8 FF 82 3F 3E 00 C8 FF 82 3F 3E 00 C0 FF 03 7F 3E 00 90 FF 03 7F 7E 00 80 FF 07 7F F8 00 80 FF
DPCM : 07 7E 7E 00 80 FF 07 7E FC 00 20 FF 07 FE F8 00 20 FF 07 FE F8 00 20 FF 0B FE F8 00 20 FE 0F FC
DPCM : F5 00 40 FE 1F FC F8 01 00 FE 0F FC E9 03 00 FE 1F F8 F9 01 00 FE 1F F8 E3 03 80 FC 1F F8 E3 03
DPCM : 80 FC 1F F8 D3 03 00 FD 1F F0 E7 07 00 F8 7F F0 A3 07 00 F9 7F E0 A7 0F 00 F8 7F E0 C7 0F 00 F2
DPCM : 7F E0 A7 0F 00 F2 7F E0 8F 0F 00 F2 7F C1 8F 1F 00 F0 7F C1 8F 1E 00 E4 FF 81 1F 3F 00 C8 FF 81
DPCM : 9F 3E 00 C8 FF 81 1F 3F 00 C8 FF 01 3F 7D 00 D0 FF 05 3F FC 00 80 FF 07 7E FC 00 A0 FF 05 7E FA
DPCM : 00 20 FF 07 7E FC 00 20 FF 17 F8 F4 01 40 FF 17 F8 E9 01 A0 FE 17 F8 E1 07 80 FC 1F F8 C3 07 80
DPCM : FC 3F F0 D1 07 80 F9 9F E0 A7 0F 00 FA 5F E0 73 8B 00 E6 FF 80 4F 2F 00 E6 7F 03 1F 3D 01 CC 7F
DPCM : 03 1F DD 00 94 FF 0D 3C DA 05 30 FB 0F 78 EC 05 D0 FC 3B F0 58 3E 80 F9 3E E0 93 5D 80 EA 7B C1
DPCM : 65 7A 01 E6 ED 03 C7 E6 01 9A F7 06 2E CB 0B 68 5D 1F 78 4C 2F A0 79 5F D0 34 BD 80 B6 7D 41 53
DPCM : F5 00 DB F6 05 55 D5 03 5C DB 07 59 55 0F 64 75 AF 60 55 3D 84 CD BD 82 55 75 11 B6 F6 0A 59 D5
DPCM : 26 D4 DA 4D A4 55 AD 44 6B 5B 49 6A D5 92 AA B5 15 A5 55 2D A9 5A 5B 52 5A D5 54 65 B5 2A 55 55
DPCM : 55 55 55 AD 54 55 55 55 55 55 53 55 55 55 55 55 55 55 55 55 55 55 55 55 55 55 55 55 55 55 55 55
DPCM : 55 55 55 55 55 55 55 55 55 55 55 55 55 55 55 55 55 55 55 55 55 55 55 55 55 55 55 55 55 55 55 55
DPCM : 55 55 55 55 55 BD 55 55 55 55 55 55 55 55 55 55 55

# Instruments
INST2A03   0     0  -1   0  -1   0 "Main "
INST2A03   1     3   1  -1  -1   0 "bass"
KEYDPCM   1   3   0     9  15   0     0  -1
KEYDPCM   1   3   2    10  15   0     0  -1
KEYDPCM   1   3   4    11  15   0     0  -1
KEYDPCM   1   3   5    12  15   0     0  -1
KEYDPCM   1   3   7    13  15   0     0  -1
KEYDPCM   1   3  11    14  15   0     0  -1
INST2A03   2     2  -1   1  -1   2 "lead1"
KEYDPCM   2   3   0     0  15   0     0  -1
KEYDPCM   2   3   2     1  15   0     0  -1
KEYDPCM   2   3   4     2  15   0     0  -1
KEYDPCM   2   3   5     8  15   0     0  -1
KEYDPCM   2   3   7    14  15   0     0  -1
INST2A03   3     4   2  -1  -1  -1 "hat_c [#C]"
INST2A03   4     5   3  -1  -1  -1 "hat_o [#C]"
INST2A03   5     6   4  -1  -1  -1 "kick [#1]"
INST2A03   6     7  -1   2  -1  -1 "tri"
INST2A03   7     8  -1   3  -1  -1 "bass"
INST2A03   8     9  -1   4  -1   3 "wahwah-tri"
INST2A03   9    10  -1  -1  -1   4 "panpipe megaman"
INST2A03  10    -1  -1  -1  -1  -1 "Zombie Nation Bass"
KEYDPCM  10   1  10     3   0   0     0  -1
KEYDPCM  10   1  11     4   0   0     0  -1
KEYDPCM  10   2   0     5   0   0     0  -1
KEYDPCM  10   2   1     6   0   0     0  -1
KEYDPCM  10   2   2     5   1   0     0  -1
KEYDPCM  10   2   3     6   1   0     0  -1
KEYDPCM  10   2   4     5   2   0     0  -1
KEYDPCM  10   2   5     5   3   0     0  -1
KEYDPCM  10   2   6     6   3   0     0  -1
KEYDPCM  10   2   7     5   4   0     0  -1
KEYDPCM  10   2   8     6   4   0     0  -1
KEYDPCM  10   2   9     5   5   0     0  -1
KEYDPCM  10   2  10     6   5   0     0  -1
KEYDPCM  10   2  11     5   6   0     0  -1
KEYDPCM  10   3   0     5   7   0     0  -1
KEYDPCM  10   3   1     6   7   0     0  -1
KEYDPCM  10   3   2     5   8   0     0  -1
KEYDPCM  10   3   3     6   8   0     0  -1
KEYDPCM  10   3   4     7   8   0     0  -1
KEYDPCM  10   3   5     5   9   0     0  -1
KEYDPCM  10   3   6     6   9   0     0  -1
KEYDPCM  10   3   7     5  10   0     0  -1
KEYDPCM  10   3   8     6  10   0     0  -1
KEYDPCM  10   3   9     5  11   0     0  -1
KEYDPCM  10   3  10     6  11   0     0  -1
KEYDPCM  10   3  11     7  11   0     0  -1
KEYDPCM  10   4   0     5  12   0     0  -1
KEYDPCM  10   4   1     6  12   0     0  -1
KEYDPCM  10   4   2     7  12   0     0  -1
KEYDPCM  10   4   3     4  13   0     0  -1
KEYDPCM  10   4   4     5  13   0     0  -1
KEYDPCM  10   4   5     6  13   0     0  -1
KEYDPCM  10   4   6     7  13   0     0  -1
KEYDPCM  10   4   7     5  14   0     0  -1
KEYDPCM  10   4   8     6  14   0     0  -1
KEYDPCM  10   4   9     7  14   0     0  -1
KEYDPCM  10   4  10     3  15   0     0  -1
KEYDPCM  10   4  11     4  15   0     0  -1
KEYDPCM  10   5   0     5  15   0     0  -1
KEYDPCM  10   5   1     6  15   0     0  -1
KEYDPCM  10   5   2     7  15   0     0  -1
INST2A03  11    11   6   5  -1   5 "arp"
INST2A03  12    12   7  -1  -1   6 "bass 2"
KEYDPCM  12   3   0     9  15   0     0  -1
KEYDPCM  12   3   2    10  15   0     0  -1
KEYDPCM  12   3   4    11  15   0     0  -1
KEYDPCM  12   3   5    12  15   0     0  -1
KEYDPCM  12   3   7    13  15   0     0  -1
KEYDPCM  12   3  11    14  15   0     0  -1
INST2A03  13    -1  -1   6  -1  -1 "New instrument"
INST2A03  14    13   8  -1  -1  -1 "crash"

# Tracks

TRACK  64   7 150 "game"
COLUMNS : 1 1 1 1 1

ORDER 00 : 00 00 00 00 00
ORDER 01 : 01 01 01 01 01
ORDER 02 : 00 00 00 00 00
ORDER 03 : 02 02 02 02 02
ORDER 04 : 03 03 03 03 03
ORDER 05 : 04 04 04 04 04

PATTERN 00
ROW 00 : D#1 07 . ... : D#3 00 . ... : D#4 08 . ... : ... .. . ... : C-3 02 . ...
ROW 01 : --- .. . ... : ... .. . ... : ... .. . ... : ... .. . ... : ... .. . ...
ROW 02 : D#2 07 . ... : D#3 00 . ... : ... .. . ... : ... .. . ... : C-3 02 . ...
ROW 03 : ... .. . ... : ... .. . ... : ... .. . ... : ... .. . ... : ... .. . ...
ROW 04 : D#1 07 . ... : D#2 00 . ... : ... .. . ... : ... .. . ... : E-3 02 . ...
ROW 05 : --- .. . ... : ... .. . ... : ... .. . ... : ... .. . ... : ... .. . ...
ROW 06 : D#2 07 . ... : ... .. . ... : ... .. . ... : ... .. . ... : ... .. . ...
ROW 07 : ... .. . ... : ... .. . ... : ... .. . ... : ... .. . ... : ... .. . ...
ROW 08 : D#1 07 . ... : D#3 00 . ... : ... .. . ... : ... .. . ... : C-3 02 . ...
ROW 09 : --- .. . ... : ... .. . ... : ... .. . ... : ... .. . ... : ... .. . ...
ROW 0A : D#2 07 . ... : D#3 00 . ... : ... .. . ... : ... .. . ... : D-3 02 . ...
ROW 0B : ... .. . ... : ... .. . ... : --- .. . ... : ... .. . ... : ... .. . ...
ROW 0C : D#1 07 . ... : D#2 00 . ... : F#4 08 . ... : ... .. . ... : C-3 02 . ...
ROW 0D : --- .. . ... : ... .. . ... : ... .. . ... : ... .. . ... : ... .. . ...
ROW 0E : D#2 07 . ... : ... .. . ... : ... .. . ... : ... .. . ... : D-3 02 . ...
ROW 0F : ... .. . ... : ... .. . ... : --- .. . ... : ... .. . ... : ... .. . ...
ROW 10 : D#1 07 . ... : D#3 00 . ... : A#3 08 . ... : ... .. . ... : C-3 02 . ...
ROW 11 : --- .. . ... : ... .. . ... : ... .. . ... : ... .. . ... : ... .. . ...
ROW 12 : D#2 07 . ... : D#3 00 . ... : ... .. . ... : ... .. . ... : C-3 02 . ...
ROW 13 : ... .. . ... : ... .. . ... : ... .. . ... : ... .. . ... : ... .. . ...
ROW 14 : D#1 07 . ... : D#2 00 . ... : ... .. . ... : ... .. . ... : E-3 02 . ...
ROW 15 : --- .. . ... : ... .. . ... : ... .. . ... : ... .. . ... : ... .. . ...
ROW 16 : D#2 07 . ... : ... .. . ... : ... .. . ... : ... .. . ... : ... .. . ...
ROW 17 : ... .. . ... : ... .. . ... : ... .. . ... : ... .. . ... : ... .. . ...
ROW 18 : D#1 07 . ... : D#3 00 . ... : ... .. . ... : ... .. . ... : C-3 02 . ...
ROW 19 : --- .. . ... : ... .. . ... : ... .. . ... : ... .. . ... : ... .. . ...
ROW 1A : D#2 07 . ... : D#3 00 . ... : ... .. . ... : ... .. . ... : D-3 02 . ...
ROW 1B : ... .. . ... : ... .. . ... : --- .. . ... : ... .. . ... : ... .. . ...
ROW 1C : D#1 07 . ... : D#2 00 . ... : D#4 08 . ... : ... .. . ... : C-3 02 . ...
ROW 1D : --- .. . ... : ... .. . ... : ... .. . ... : ... .. . ... : ... .. . ...
ROW 1E : D#2 07 . ... : ... .. . ... : ... .. . ... : ... .. . ... : D-3 02 . ...
ROW 1F : ... .. . ... : ... .. . ... : --- .. . ... : ... .. . ... : ... .. . ...
ROW 20 : C#1 07 . ... : C#3 00 . ... : C#4 08 . ... : ... .. . ... : C-3 02 . ...
ROW 21 : --- .. . ... : ... .. . ... : ... .. . ... : ... .. . ... : ... .. . ...
ROW 22 : C#2 07 . ... : C#3 00 . ... : ... .. . ... : ... .. . ... : C-3 02 . ...
ROW 23 : ... .. . ... : ... .. . ... : ... .. . ... : ... .. . ... : ... .. . ...
ROW 24 : C#1 07 . ... : C#2 00 . ... : ... .. . ... : ... .. . ... : E-3 02 . ...
ROW 25 : --- .. . ... : ... .. . ... : ... .. . ... : ... .. . ... : ... .. . ...
ROW 26 : C#2 07 . ... : ... .. . ... : ... .. . ... : ... .. . ... : ... .. . ...
ROW 27 : ... .. . ... : ... .. . ... : --- .. . ... : ... .. . ... : ... .. . ...
ROW 28 : C#1 07 . ... : C#3 00 . ... : C-4 08 . ... : ... .. . ... : C-3 02 . ...
ROW 29 : --- .. . ... : ... .. . ... : ... .. . ... : ... .. . ... : ... .. . ...
ROW 2A : C#2 07 . ... : C#3 00 . ... : ... .. . ... : ... .. . ... : D-3 02 . ...
ROW 2B : ... .. . ... : ... .. . ... : --- .. . ... : ... .. . ... : ... .. . ...
ROW 2C : C#1 07 . ... : C#2 00 . ... : C#4 08 . ... : ... .. . ... : C-3 02 . ...
ROW 2D : --- .. . ... : ... .. . ... : ... .. . ... : ... .. . ... : ... .. . ...
ROW 2E : C#2 07 . ... : ... .. . ... : ... .. . ... : ... .. . ... : D-3 02 . ...
ROW 2F : ... .. . ... : ... .. . ... : --- .. . ... : ... .. . ... : ... .. . ...
ROW 30 : C#1 07 . ... : C#3 00 . ... : A#3 08 . ... : ... .. . ... : C-3 02 . ...
ROW 31 : --- .. . ... : ... .. . ... : ... .. . ... : ... .. . ... : ... .. . ...
ROW 32 : C#2 07 . ... : C#3 00 . ... : ... .. . ... : ... .. . ... : C-3 02 . ...
ROW 33 : ... .. . ... : ... .. . ... : ... .. . ... : ... .. . ... : ... .. . ...
ROW 34 : C#1 07 . ... : C#2 00 . ... : ... .. . ... : ... .. . ... : E-3 02 . ...
ROW 35 : --- .. . ... : ... .. . ... : ... .. . ... : ... .. . ... : ... .. . ...
ROW 36 : C#2 07 . ... : ... .. . ... : ... .. . ... : ... .. . ... : ... .. . ...
ROW 37 : ... .. . ... : ... .. . ... : ... .. . ... : ... .. . ... : ... .. . ...
ROW 38 : C#1 07 . ... : C#3 00 . ... : ... .. . ... : ... .. . ... : C-3 02 . ...
ROW 39 : --- .. . ... : ... .. . ... : ... .. . ... : ... .. . ... : ... .. . ...
ROW 3A : C#2 07 . ... : C#3 00 . ... : ... .. . ... : ... .. . ... : D-3 02 . ...
ROW 3B : ... .. . ... : ... .. . ... : ... .. . ... : ... .. . ... : ... .. . ...
ROW 3C : C#1 07 . ... : C#2 00 . ... : ... .. . ... : ... .. . ... : C-3 02 . ...
ROW 3D : --- .. . ... : ... .. . ... : ... .. . ... : ... .. . ... : ... .. . ...
ROW 3E : C#2 07 . ... : ... .. . ... : ... .. . ... : ... .. . ... : D-3 02 . ...
ROW 3F : ... .. . ... : ... .. . ... : --- .. . ... : ... .. . ... : ... .. . ...

PATTERN 01
ROW 00 : G#0 07 . ... : G#2 00 . ... : C-4 08 . ... : ... .. . ... : C-3 02 . ...
ROW 01 : --- .. . ... : ... .. . ... : ... .. . ... : ... .. . ... : ... .. . ...
ROW 02 : G#1 07 . ... : G#2 00 . ... : ... .. . ... : ... .. . ... : C-3 02 . ...
ROW 03 : ... .. . ... : ... .. . ... : ... .. . ... : ... .. . ... : ... .. . ...
ROW 04 : G#0 07 . ... : G#1 00 . ... : G#3 00 . ... : ... .. . ... : E-3 02 . ...
ROW 05 : --- .. . ... : ... .. . ... : ... .. . ... : ... .. . ... : ... .. . ...
ROW 06 : G#1 07 . ... : ... .. . ... : ... .. . ... : ... .. . ... : ... .. . ...
ROW 07 : ... .. . ... : ... .. . ... : ... .. . ... : ... .. . ... : ... .. . ...
ROW 08 : G#0 07 . ... : G#2 00 . ... : ... .. . ... : ... .. . ... : C-3 02 . ...
ROW 09 : --- .. . ... : ... .. . ... : ... .. . ... : ... .. . ... : ... .. . ...
ROW 0A : G#1 07 . ... : G#2 00 . ... : ... .. . ... : ... .. . ... : D-3 02 . ...
ROW 0B : ... .. . ... : ... .. . ... : --- .. . ... : ... .. . ... : ... .. . ...
ROW 0C : G#0 07 . ... : G#1 00 . ... : C#4 08 . ... : ... .. . ... : C-3 02 . ...
ROW 0D : --- .. . ... : ... .. . ... : ... .. . ... : ... .. . ... : ... .. . ...
ROW 0E : G#1 07 . ... : ... .. . ... : ... .. . ... : ... .. . ... : D-3 02 . ...
ROW 0F : ... .. . ... : ... .. . ... : --- .. . ... : ... .. . ... : ... .. . ...
ROW 10 : G#0 07 . ... : G#2 00 . ... : D#4 08 . ... : ... .. . ... : C-3 02 . ...
ROW 11 : --- .. . ... : ... .. . ... : ... .. . ... : ... .. . ... : ... .. . ...
ROW 12 : G#1 07 . ... : G#2 00 . ... : ... .. . ... : ... .. . ... : C-3 02 . ...
ROW 13 : ... .. . ... : ... .. . ... : ... .. . ... : ... .. . ... : ... .. . ...
ROW 14 : G#0 07 . ... : G#1 00 . ... : F-4 00 . ... : ... .. . ... : E-3 02 . ...
ROW 15 : --- .. . ... : ... .. . ... : ... .. . ... : ... .. . ... : ... .. . ...
ROW 16 : G#1 07 . ... : ... .. . ... : ... .. . ... : ... .. . ... : ... .. . ...
ROW 17 : ... .. . ... : ... .. . ... : ... .. . ... : ... .. . ... : ... .. . ...
ROW 18 : G#0 07 . ... : G#2 00 . ... : ... .. . ... : ... .. . ... : C-3 02 . ...
ROW 19 : --- .. . ... : ... .. . ... : ... .. . ... : ... .. . ... : ... .. . ...
ROW 1A : G#1 07 . ... : G#2 00 . ... : ... .. . ... : ... .. . ... : D-3 02 . ...
ROW 1B : ... .. . ... : ... .. . ... : --- .. . ... : ... .. . ... : ... .. . ...
ROW 1C : G#0 07 . ... : G#1 00 . ... : C-4 08 . ... : ... .. . ... : C-3 02 . ...
ROW 1D : --- .. . ... : ... .. . ... : ... .. . ... : ... .. . ... : ... .. . ...
ROW 1E : G#1 07 . ... : ... .. . ... : ... .. . ... : ... .. . ... : D-3 02 . ...
ROW 1F : ... .. . ... : ... .. . ... : --- .. . ... : ... .. . ... : ... .. . ...
ROW 20 : A#0 07 . ... : A#2 00 . ... : F#4 08 . ... : ... .. . ... : C-3 02 . ...
ROW 21 : --- .. . ... : ... .. . ... : ... .. . ... : ... .. . ... : ... .. . ...
ROW 22 : A#1 07 . ... : A#2 00 . ... : ... .. . ... : ... .. . ... : C-3 02 . ...
ROW 23 : ... .. . ... : ... .. . ... : ... .. . ... : ... .. . ... : ... .. . ...
ROW 24 : A#0 07 . ... : A#1 00 . ... : ... .. . ... : ... .. . ... : E-3 02 . ...
ROW 25 : --- .. . ... : ... .. . ... : ... .. . ... : ... .. . ... : ... .. . ...
ROW 26 : A#1 07 . ... : ... .. . ... : ... .. . ... : ... .. . ... : ... .. . ...
ROW 27 : ... .. . ... : ... .. . ... : --- .. . ... : ... .. . ... : ... .. . ...
ROW 28 : A#0 07 . ... : A#2 00 . ... : F-4 08 . ... : ... .. . ... : C-3 02 . ...
ROW 29 : --- .. . ... : ... .. . ... : ... .. . ... : ... .. . ... : ... .. . ...
ROW 2A : A#1 07 . ... : A#2 00 . ... : ... .. . ... : ... .. . ... : D-3 02 . ...
ROW 2B : ... .. . ... : ... .. . ... : ... .. . ... : ... .. . ... : ... .. . ...
ROW 2C : A#0 07 . ... : A#1 00 . ... : D#4 00 . ... : ... .. . ... : C-3 02 . ...
ROW 2D : --- .. . ... : ... .. . ... : ... .. . ... : ... .. . ... : ... .. . ...
ROW 2E : A#1 07 . ... : ... .. . ... : ... .. . ... : ... .. . ... : D-3 02 . ...
ROW 2F : ... .. . ... : ... .. . ... : --- .. . ... : ... .. . ... : ... .. . ...
ROW 30 : A#0 07 . ... : A#2 00 . ... : C#4 08 . ... : ... .. . ... : C-3 02 . ...
ROW 31 : --- .. . ... : ... .. . ... : ... .. . ... : ... .. . ... : ... .. . ...
ROW 32 : A#1 07 . ... : A#2 00 . ... : ... .. . ... : ... .. . ... : C-3 02 . ...
ROW 33 : ... .. . ... : ... .. . ... : ... .. . ... : ... .. . ... : ... .. . ...
ROW 34 : A#0 07 . ... : A#1 00 . ... : ... .. . ... : ... .. . ... : E-3 02 . ...
ROW 35 : --- .. . ... : ... .. . ... : ... .. . ... : ... .. . ... : ... .. . ...
ROW 36 : A#1 07 . ... : ... .. . ... : ... .. . ... : ... .. . ... : ... .. . ...
ROW 37 : ... .. . ... : ... .. . ... : --- .. . ... : ... .. . ... : ... .. . ...
ROW 38 : A#0 07 . ... : A#2 00 . ... : D#4 08 . ... : ... .. . ... : C-3 02 . ...
ROW 39 : --- .. . ... : ... .. . ... : ... .. . ... : ... .. . ... : ... .. . ...
ROW 3A : A#1 07 . ... : A#2 00 . ... : ... .. . ... : ... .. . ... : D-3 02 . ...
ROW 3B : ... .. . ... : ... .. . ... : ... .. . ... : ... .. . ... : ... .. . ...
ROW 3C : A#0 07 . ... : A#1 00 . ... : ... .. . ... : ... .. . ... : C-3 02 . ...
ROW 3D : --- .. . ... : ... .. . ... : ... .. . ... : ... .. . ... : ... .. . ...
ROW 3E : A#1 07 . ... : ... .. . ... : ... .. . ... : ... .. . ... : D-3 02 . ...
ROW 3F : ... .. . ... : ... .. . ... : --- .. . ... : ... .. . ... : ... .. . ...

PATTERN 02
ROW 00 : G#0 07 . ... : G#2 00 . ... : C-4 08 . ... : ... .. . ... : C-3 02 . ...
ROW 01 : --- .. . ... : ... .. . ... : ... .. . ... : ... .. . ... : ... .. . ...
ROW 02 : G#1 07 . ... : G#2 00 . ... : ... .. . ... : ... .. . ... : C-3 02 . ...
ROW 03 : ... .. . ... : ... .. . ... : ... .. . ... : ... .. . ... : ... .. . ...
ROW 04 : G#0 07 . ... : G#1 00 . ... : G#3 00 . ... : ... .. . ... : E-3 02 . ...
ROW 05 : --- .. . ... : ... .. . ... : ... .. . ... : ... .. . ... : ... .. . ...
ROW 06 : G#1 07 . ... : ... .. . ... : ... .. . ... : ... .. . ... : ... .. . ...
ROW 07 : ... .. . ... : ... .. . ... : ... .. . ... : ... .. . ... : ... .. . ...
ROW 08 : G#0 07 . ... : G#2 00 . ... : ... .. . ... : ... .. . ... : C-3 02 . ...
ROW 09 : --- .. . ... : ... .. . ... : ... .. . ... : ... .. . ... : ... .. . ...
ROW 0A : G#1 07 . ... : G#2 00 . ... : ... .. . ... : ... .. . ... : D-3 02 . ...
ROW 0B : ... .. . ... : ... .. . ... : --- .. . ... : ... .. . ... : ... .. . ...
ROW 0C : G#0 07 . ... : G#1 00 . ... : C#4 08 . ... : ... .. . ... : C-3 02 . ...
ROW 0D : --- .. . ... : ... .. . ... : ... .. . ... : ... .. . ... : ... .. . ...
ROW 0E : G#1 07 . ... : ... .. . ... : ... .. . ... : ... .. . ... : D-3 02 . ...
ROW 0F : ... .. . ... : ... .. . ... : --- .. . ... : ... .. . ... : ... .. . ...
ROW 10 : G#0 07 . ... : G#2 00 . ... : D#4 08 . ... : ... .. . ... : C-3 02 . ...
ROW 11 : --- .. . ... : ... .. . ... : ... .. . ... : ... .. . ... : ... .. . ...
ROW 12 : G#1 07 . ... : G#2 00 . ... : ... .. . ... : ... .. . ... : C-3 02 . ...
ROW 13 : ... .. . ... : ... .. . ... : ... .. . ... : ... .. . ... : ... .. . ...
ROW 14 : G#0 07 . ... : G#1 00 . ... : F-4 08 . ... : ... .. . ... : E-3 02 . ...
ROW 15 : --- .. . ... : ... .. . ... : ... .. . ... : ... .. . ... : ... .. . ...
ROW 16 : G#1 07 . ... : ... .. . ... : ... .. . ... : ... .. . ... : ... .. . ...
ROW 17 : ... .. . ... : ... .. . ... : ... .. . ... : ... .. . ... : ... .. . ...
ROW 18 : G#0 07 . ... : G#2 00 . ... : ... .. . ... : ... .. . ... : C-3 02 . ...
ROW 19 : --- .. . ... : ... .. . ... : ... .. . ... : ... .. . ... : ... .. . ...
ROW 1A : G#1 07 . ... : G#2 00 . ... : ... .. . ... : ... .. . ... : D-3 02 . ...
ROW 1B : ... .. . ... : ... .. . ... : --- .. . ... : ... .. . ... : ... .. . ...
ROW 1C : G#0 07 . ... : G#1 00 . ... : A#4 06 . ... : ... .. . ... : C-3 02 . ...
ROW 1D : --- .. . ... : ... .. . ... : ... .. . ... : ... .. . ... : ... .. . ...
ROW 1E : G#1 07 . ... : ... .. . ... : G#4 06 . ... : ... .. . ... : D-3 02 . ...
ROW 1F : ... .. . ... : ... .. . ... : ... .. . ... : ... .. . ... : ... .. . ...
ROW 20 : A#0 07 . ... : A#2 00 . ... : A#4 06 . ... : ... .. . ... : C-3 02 . ...
ROW 21 : --- .. . ... : ... .. . ... : ... .. . ... : ... .. . ... : ... .. . ...
ROW 22 : A#1 07 . ... : A#2 00 . ... : ... .. . ... : ... .. . ... : C-3 02 . ...
ROW 23 : ... .. . ... : ... .. . ... : ... .. . ... : ... .. . ... : ... .. . ...
ROW 24 : A#0 07 . ... : A#1 00 . ... : ... .. . ... : ... .. . ... : E-3 02 . ...
ROW 25 : --- .. . ... : ... .. . ... : ... .. . ... : ... .. . ... : ... .. . ...
ROW 26 : A#1 07 . ... : ... .. . ... : ... .. . ... : ... .. . ... : ... .. . ...
ROW 27 : ... .. . ... : ... .. . ... : ... .. . ... : ... .. . ... : ... .. . ...
ROW 28 : A#0 07 . ... : A#2 00 . ... : ... .. . ... : ... .. . ... : C-3 02 . ...
ROW 29 : --- .. . ... : ... .. . ... : ... .. . ... : ... .. . ... : ... .. . ...
ROW 2A : A#1 07 . ... : A#2 00 . ... : ... .. . ... : ... .. . ... : D-3 02 . ...
ROW 2B : ... .. . ... : ... .. . ... : ... .. . ... : ... .. . ... : ... .. . ...
ROW 2C : A#0 07 . ... : A#1 00 . ... : ... .. . ... : ... .. . ... : C-3 02 . ...
ROW 2D : --- .. . ... : ... .. . ... : ... .. . ... : ... .. . ... : ... .. . ...
ROW 2E : A#1 07 . ... : ... .. . ... : ... .. . ... : ... .. . ... : D-3 02 . ...
ROW 2F : ... .. . ... : ... .. . ... : ... .. . ... : ... .. . ... : ... .. . ...
ROW 30 : A#0 07 . ... : A#2 00 . ... : ... .. . ... : ... .. . ... : C-3 02 . ...
ROW 31 : --- .. . ... : ... .. . ... : ... .. . ... : ... .. . ... : ... .. . ...
ROW 32 : A#1 07 . ... : A#2 00 . ... : ... .. . ... : ... .. . ... : C-3 02 . ...
ROW 33 : ... .. . ... : ... .. . ... : ... .. . ... : ... .. . ... : ... .. . ...
ROW 34 : A#0 07 . ... : A#1 00 . ... : ... .. . ... : ... .. . ... : E-3 02 . ...
ROW 35 : --- .. . ... : ... .. . ... : ... .. . ... : ... .. . ... : ... .. . ...
ROW 36 : A#1 07 . ... : ... .. . ... : ... .. . ... : ... .. . ... : ... .. . ...
ROW 37 : ... .. . ... : ... .. . ... : ... .. . ... : ... .. . ... : ... .. . ...
ROW 38 : A#0 07 . ... : A#2 00 . ... : ... .. . ... : ... .. . ... : C-3 02 . ...
ROW 39 : --- .. . ... : ... .. . ... : ... .. . ... : ... .. . ... : ... .. . ...
ROW 3A : A#1 07 . ... : A#2 00 . ... : ... .. . ... : ... .. . ... : D-3 02 . ...
ROW 3B : ... .. . ... : ... .. . ... : ... .. . ... : ... .. . ... : ... .. . ...
ROW 3C : A#0 07 . ... : A#1 00 . ... : C#5 06 . ... : ... .. . ... : C-3 02 . ...
ROW 3D : --- .. . ... : ... .. . ... : ... .. . ... : ... .. . ... : ... .. . ...
ROW 3E : A#1 07 . ... : ... .. . ... : ... .. . ... : ... .. . ... : D-3 02 . ...
ROW 3F : ... .. . ... : ... .. . ... : ... .. . ... : ... .. . ... : ... .. . ...

PATTERN 03
ROW 00 : --- .. . ... : D#3 00 . ... : D#5 06 . ... : ... .. . ... : E-3 02 . ...
ROW 01 : ... .. . ... : ... .. . ... : ... .. . ... : ... .. . ... : ... .. . ...
ROW 02 : ... .. . ... : ... .. . ... : ... .. . ... : ... .. . ... : ... .. . ...
ROW 03 : ... .. . ... : --- .. . ... : ... .. . ... : ... .. . ... : ... .. . ...
ROW 04 : ... .. . ... : F#3 00 . ... : C-5 06 . ... : ... .. . ... : E-3 02 . ...
ROW 05 : ... .. . ... : ... .. . ... : ... .. . ... : ... .. . ... : ... .. . ...
ROW 06 : ... .. . ... : ... .. . ... : A#4 06 . ... : ... .. . ... : ... .. . ...
ROW 07 : ... .. . ... : --- .. . ... : ... .. . ... : ... .. . ... : ... .. . ...
ROW 08 : ... .. . ... : G#3 00 . ... : C-5 06 . ... : ... .. . ... : E-3 02 . ...
ROW 09 : ... .. . ... : ... .. . ... : ... .. . ... : ... .. . ... : ... .. . ...
ROW 0A : ... .. . ... : ... .. . ... : C#5 06 . ... : ... .. . ... : ... .. . ...
ROW 0B : ... .. . ... : --- .. . ... : ... .. . ... : ... .. . ... : ... .. . ...
ROW 0C : ... .. . ... : A#3 00 . ... : C-5 06 . ... : ... .. . ... : E-3 02 . ...
ROW 0D : ... .. . ... : ... .. . ... : ... .. . ... : ... .. . ... : ... .. . ...
ROW 0E : ... .. . ... : ... .. . ... : G#4 06 . ... : ... .. . ... : E-3 02 . ...
ROW 0F : ... .. . ... : --- .. . ... : ... .. . ... : ... .. . ... : ... .. . ...
ROW 10 : ... .. . ... : D#3 00 . ... : A#4 06 . ... : ... .. . ... : E-3 02 . ...
ROW 11 : ... .. . ... : ... .. . ... : ... .. . ... : ... .. . ... : ... .. . ...
ROW 12 : ... .. . ... : ... .. . ... : C-5 06 . ... : ... .. . ... : ... .. . ...
ROW 13 : ... .. . ... : --- .. . ... : ... .. . ... : ... .. . ... : ... .. . ...
ROW 14 : ... .. . ... : F#3 00 . ... : A#4 06 . ... : ... .. . ... : E-3 02 . ...
ROW 15 : ... .. . ... : ... .. . ... : ... .. . ... : ... .. . ... : ... .. . ...
ROW 16 : ... .. . ... : ... .. . ... : G#4 06 . ... : ... .. . ... : ... .. . ...
ROW 17 : ... .. . ... : --- .. . ... : ... .. . ... : ... .. . ... : ... .. . ...
ROW 18 : ... .. . ... : G#3 00 . ... : F-4 06 . ... : ... .. . ... : E-3 02 . ...
ROW 19 : ... .. . ... : ... .. . ... : ... .. . ... : ... .. . ... : ... .. . ...
ROW 1A : ... .. . ... : ... .. . ... : ... .. . ... : ... .. . ... : ... .. . ...
ROW 1B : ... .. . ... : --- .. . ... : ... .. . ... : ... .. . ... : ... .. . ...
ROW 1C : ... .. . ... : A#3 00 . ... : F#5 06 . ... : ... .. . ... : E-3 02 . ...
ROW 1D : ... .. . ... : ... .. . ... : ... .. . ... : ... .. . ... : ... .. . ...
ROW 1E : ... .. . ... : ... .. . ... : ... .. . ... : ... .. . ... : E-3 02 . ...
ROW 1F : ... .. . ... : --- .. . ... : ... .. . ... : ... .. . ... : ... .. . ...
ROW 20 : ... .. . ... : A#3 00 . ... : D#5 06 . ... : ... .. . ... : E-3 02 . ...
ROW 21 : ... .. . ... : ... .. . ... : ... .. . ... : ... .. . ... : ... .. . ...
ROW 22 : ... .. . ... : ... .. . ... : ... .. . ... : ... .. . ... : ... .. . ...
ROW 23 : ... .. . ... : ... .. . ... : ... .. . ... : ... .. . ... : ... .. . ...
ROW 24 : ... .. . ... : G#3 00 . ... : C-5 06 . ... : ... .. . ... : E-3 02 . ...
ROW 25 : ... .. . ... : ... .. . ... : ... .. . ... : ... .. . ... : ... .. . ...
ROW 26 : ... .. . ... : ... .. . ... : A#4 06 . ... : ... .. . ... : ... .. . ...
ROW 27 : ... .. . ... : ... .. . ... : ... .. . ... : ... .. . ... : ... .. . ...
ROW 28 : ... .. . ... : F#3 00 . ... : C-5 06 . ... : ... .. . ... : E-3 02 . ...
ROW 29 : ... .. . ... : ... .. . ... : ... .. . ... : ... .. . ... : ... .. . ...
ROW 2A : ... .. . ... : ... .. . ... : C#5 06 . ... : ... .. . ... : ... .. . ...
ROW 2B : ... .. . ... : ... .. . ... : ... .. . ... : ... .. . ... : ... .. . ...
ROW 2C : ... .. . ... : D#3 00 . ... : C-5 06 . ... : ... .. . ... : E-3 02 . ...
ROW 2D : ... .. . ... : ... .. . ... : ... .. . ... : ... .. . ... : ... .. . ...
ROW 2E : ... .. . ... : ... .. . ... : G#4 06 . ... : ... .. . ... : E-3 02 . ...
ROW 2F : ... .. . ... : ... .. . ... : ... .. . ... : ... .. . ... : ... .. . ...
ROW 30 : ... .. . ... : A#3 00 . ... : A#4 06 . ... : ... .. . ... : E-3 02 . ...
ROW 31 : ... .. . ... : ... .. . ... : ... .. . ... : ... .. . ... : ... .. . ...
ROW 32 : ... .. . ... : ... .. . ... : C-5 06 . ... : ... .. . ... : ... .. . ...
ROW 33 : ... .. . ... : ... .. . ... : ... .. . ... : ... .. . ... : ... .. . ...
ROW 34 : ... .. . ... : G#3 00 . ... : A#4 06 . ... : ... .. . ... : E-3 02 . ...
ROW 35 : ... .. . ... : ... .. . ... : ... .. . ... : ... .. . ... : ... .. . ...
ROW 36 : ... .. . ... : ... .. . ... : G#4 06 . ... : ... .. . ... : ... .. . ...
ROW 37 : ... .. . ... : ... .. . ... : ... .. . ... : ... .. . ... : ... .. . ...
ROW 38 : ... .. . ... : F#3 00 . ... : F-4 06 . ... : ... .. . ... : E-3 02 . ...
ROW 39 : ... .. . ... : ... .. . ... : ... .. . ... : ... .. . ... : ... .. . ...
ROW 3A : ... .. . ... : ... .. . ... : ... .. . ... : ... .. . ... : ... .. . ...
ROW 3B : ... .. . ... : ... .. . ... : ... .. . ... : ... .. . ... : ... .. . ...
ROW 3C : ... .. . ... : D#3 00 . ... : C#4 06 . ... : ... .. . ... : E-3 02 . ...
ROW 3D : ... .. . ... : ... .. . ... : ... .. . ... : ... .. . ... : ... .. . ...
ROW 3E : ... .. . ... : ... .. . ... : ... .. . ... : ... .. . ... : E-3 02 . ...
ROW 3F : ... .. . ... : ... .. . ... : ... .. . ... : ... .. . ... : ... .. . ...

PATTERN 04
ROW 00 : --- .. . ... : D#3 00 . ... : D#4 06 . ... : ... .. . ... : E-3 02 . ...
ROW 01 : ... .. . ... : ... .. . ... : ... .. . ... : ... .. . ... : ... .. . ...
ROW 02 : ... .. . ... : ... .. . ... : ... .. . ... : ... .. . ... : ... .. . ...
ROW 03 : ... .. . ... : --- .. . ... : ... .. . ... : ... .. . ... : ... .. . ...
ROW 04 : ... .. . ... : F#3 00 . ... : C-4 06 . ... : ... .. . ... : E-3 02 . ...
ROW 05 : ... .. . ... : ... .. . ... : ... .. . ... : ... .. . ... : ... .. . ...
ROW 06 : ... .. . ... : ... .. . ... : A#3 06 . ... : ... .. . ... : ... .. . ...
ROW 07 : ... .. . ... : --- .. . ... : ... .. . ... : ... .. . ... : ... .. . ...
ROW 08 : ... .. . ... : G#3 00 . ... : C-4 06 . ... : ... .. . ... : E-3 02 . ...
ROW 09 : ... .. . ... : ... .. . ... : ... .. . ... : ... .. . ... : ... .. . ...
ROW 0A : ... .. . ... : ... .. . ... : C#4 06 . ... : ... .. . ... : ... .. . ...
ROW 0B : ... .. . ... : --- .. . ... : ... .. . ... : ... .. . ... : ... .. . ...
ROW 0C : ... .. . ... : A#3 00 . ... : C-4 06 . ... : ... .. . ... : E-3 02 . ...
ROW 0D : ... .. . ... : ... .. . ... : ... .. . ... : ... .. . ... : ... .. . ...
ROW 0E : ... .. . ... : ... .. . ... : G#3 06 . ... : ... .. . ... : E-3 02 . ...
ROW 0F : ... .. . ... : --- .. . ... : ... .. . ... : ... .. . ... : ... .. . ...
ROW 10 : ... .. . ... : D#3 00 . ... : A#3 06 . ... : ... .. . ... : E-3 02 . ...
ROW 11 : ... .. . ... : ... .. . ... : ... .. . ... : ... .. . ... : ... .. . ...
ROW 12 : ... .. . ... : ... .. . ... : C-4 06 . ... : ... .. . ... : ... .. . ...
ROW 13 : ... .. . ... : --- .. . ... : ... .. . ... : ... .. . ... : ... .. . ...
ROW 14 : ... .. . ... : F#3 00 . ... : A#3 06 . ... : ... .. . ... : E-3 02 . ...
ROW 15 : ... .. . ... : ... .. . ... : ... .. . ... : ... .. . ... : ... .. . ...
ROW 16 : ... .. . ... : ... .. . ... : G#3 06 . ... : ... .. . ... : ... .. . ...
ROW 17 : ... .. . ... : --- .. . ... : ... .. . ... : ... .. . ... : ... .. . ...
ROW 18 : ... .. . ... : G#3 00 . ... : F-3 06 . ... : ... .. . ... : E-3 02 . ...
ROW 19 : ... .. . ... : ... .. . ... : ... .. . ... : ... .. . ... : ... .. . ...
ROW 1A : ... .. . ... : ... .. . ... : ... .. . ... : ... .. . ... : ... .. . ...
ROW 1B : ... .. . ... : --- .. . ... : ... .. . ... : ... .. . ... : ... .. . ...
ROW 1C : ... .. . ... : A#3 00 . ... : F#4 06 . ... : ... .. . ... : E-3 02 . ...
ROW 1D : ... .. . ... : ... .. . ... : ... .. . ... : ... .. . ... : ... .. . ...
ROW 1E : ... .. . ... : ... .. . ... : ... .. . ... : ... .. . ... : E-3 02 . ...
ROW 1F : ... .. . ... : --- .. . ... : ... .. . ... : ... .. . ... : ... .. . ...
ROW 20 : ... .. . ... : A#3 00 . ... : D#4 06 . ... : ... .. . ... : E-3 02 . ...
ROW 21 : ... .. . ... : ... .. . ... : ... .. . ... : ... .. . ... : ... .. . ...
ROW 22 : ... .. . ... : ... .. . ... : ... .. . ... : ... .. . ... : ... .. . ...
ROW 23 : ... .. . ... : ... .. . ... : ... .. . ... : ... .. . ... : ... .. . ...
ROW 24 : ... .. . ... : G#3 00 . ... : C-4 06 . ... : ... .. . ... : E-3 02 . ...
ROW 25 : ... .. . ... : ... .. . ... : ... .. . ... : ... .. . ... : ... .. . ...
ROW 26 : ... .. . ... : ... .. . ... : A#3 06 . ... : ... .. . ... : ... .. . ...
ROW 27 : ... .. . ... : ... .. . ... : ... .. . ... : ... .. . ... : ... .. . ...
ROW 28 : ... .. . ... : F#3 00 . ... : C-4 06 . ... : ... .. . ... : E-3 02 . ...
ROW 29 : ... .. . ... : ... .. . ... : ... .. . ... : ... .. . ... : ... .. . ...
ROW 2A : ... .. . ... : ... .. . ... : C#4 06 . ... : ... .. . ... : ... .. . ...
ROW 2B : ... .. . ... : ... .. . ... : ... .. . ... : ... .. . ... : ... .. . ...
ROW 2C : ... .. . ... : D#3 00 . ... : C-4 06 . ... : ... .. . ... : E-3 02 . ...
ROW 2D : ... .. . ... : ... .. . ... : ... .. . ... : ... .. . ... : ... .. . ...
ROW 2E : ... .. . ... : ... .. . ... : G#3 06 . ... : ... .. . ... : E-3 02 . ...
ROW 2F : ... .. . ... : ... .. . ... : ... .. . ... : ... .. . ... : ... .. . ...
ROW 30 : ... .. . ... : A#3 00 . ... : A#3 06 . ... : ... .. . ... : E-3 02 . ...
ROW 31 : ... .. . ... : ... .. . ... : ... .. . ... : ... .. . ... : ... .. . ...
ROW 32 : ... .. . ... : ... .. . ... : C-4 06 . ... : ... .. . ... : ... .. . ...
ROW 33 : ... .. . ... : ... .. . ... : ... .. . ... : ... .. . ... : ... .. . ...
ROW 34 : ... .. . ... : G#3 00 . ... : A#3 06 . ... : ... .. . ... : E-3 02 . ...
ROW 35 : ... .. . ... : ... .. . ... : ... .. . ... : ... .. . ... : ... .. . ...
ROW 36 : ... .. . ... : ... .. . ... : G#3 06 . ... : ... .. . ... : ... .. . ...
ROW 37 : ... .. . ... : ... .. . ... : ... .. . ... : ... .. . ... : ... .. . ...
ROW 38 : ... .. . ... : F#3 00 . ... : F-3 06 . ... : ... .. . ... : E-3 02 . ...
ROW 39 : ... .. . ... : ... .. . ... : ... .. . ... : ... .. . ... : ... .. . ...
ROW 3A : ... .. . ... : ... .. . ... : ... .. . ... : ... .. . ... : ... .. . ...
ROW 3B : ... .. . ... : ... .. . ... : ... .. . ... : ... .. . ... : ... .. . ...
ROW 3C : ... .. . ... : D#3 00 . ... : C#3 06 . ... : ... .. . ... : E-3 02 . ...
ROW 3D : ... .. . ... : ... .. . ... : ... .. . ... : ... .. . ... : ... .. . ...
ROW 3E : ... .. . ... : ... .. . ... : ... .. . ... : ... .. . ... : E-3 02 . ...
ROW 3F : ... .. . ... : ... .. . ... : ... .. . ... : ... .. . ... : ... .. . ...

TRACK  64   6 150 "title"
COLUMNS : 1 1 1 1 1

ORDER 00 : 00 00 00 00 00
ORDER 01 : 01 01 01 01 01
ORDER 02 : 02 02 02 02 02
ORDER 03 : 03 03 03 03 03
ORDER 04 : 04 04 04 04 04

PATTERN 00
ROW 00 : D-1 00 . ... : D-3 00 . ... : ... .. . ... : ... .. . ... : ... .. . ...
ROW 01 : --- .. . ... : ... .. . ... : ... .. . ... : ... .. . ... : ... .. . ...
ROW 02 : D-1 00 . ... : ... .. . ... : ... .. . ... : ... .. . ... : ... .. . ...
ROW 03 : --- .. . ... : --- .. . ... : ... .. . ... : ... .. . ... : ... .. . ...
ROW 04 : F-1 00 . ... : F-3 00 . ... : ... .. . ... : ... .. . ... : ... .. . ...
ROW 05 : --- .. . ... : ... .. . ... : ... .. . ... : ... .. . ... : ... .. . ...
ROW 06 : F-1 00 . ... : ... .. . ... : ... .. . ... : ... .. . ... : ... .. . ...
ROW 07 : --- .. . ... : --- .. . ... : ... .. . ... : ... .. . ... : ... .. . ...
ROW 08 : G-1 00 . ... : G-3 00 . ... : ... .. . ... : ... .. . ... : ... .. . ...
ROW 09 : --- .. . ... : ... .. . ... : ... .. . ... : ... .. . ... : ... .. . ...
ROW 0A : G-1 00 . ... : ... .. . ... : ... .. . ... : ... .. . ... : ... .. . ...
ROW 0B : --- .. . ... : --- .. . ... : ... .. . ... : ... .. . ... : ... .. . ...
ROW 0C : A-1 00 . ... : A-3 00 . ... : ... .. . ... : ... .. . ... : ... .. . ...
ROW 0D : --- .. . ... : ... .. . ... : ... .. . ... : ... .. . ... : ... .. . ...
ROW 0E : A-1 00 . ... : ... .. . ... : ... .. . ... : ... .. . ... : ... .. . ...
ROW 0F : --- .. . ... : --- .. . ... : ... .. . ... : ... .. . ... : ... .. . ...
ROW 10 : D-1 00 . ... : D-3 00 . ... : D-2 05 . ... : D-# 03 . ... : ... .. . ...
ROW 11 : --- .. . ... : ... .. . ... : ... .. . ... : ... .. . ... : ... .. . ...
ROW 12 : D-1 00 . ... : ... .. . ... : ... .. . ... : F-# 03 . ... : ... .. . ...
ROW 13 : --- .. . ... : --- .. . ... : ... .. . ... : ... .. . ... : ... .. . ...
ROW 14 : F-1 00 . ... : F-3 00 . ... : D-2 05 . ... : D-# 03 . ... : ... .. . ...
ROW 15 : --- .. . ... : ... .. . ... : ... .. . ... : ... .. . ... : ... .. . ...
ROW 16 : F-1 00 . ... : ... .. . ... : ... .. . ... : F-# 03 . ... : ... .. . ...
ROW 17 : --- .. . ... : --- .. . ... : ... .. . ... : ... .. . ... : ... .. . ...
ROW 18 : G-1 00 . ... : G-3 00 . ... : D-2 05 . ... : D-# 03 . ... : ... .. . ...
ROW 19 : --- .. . ... : ... .. . ... : ... .. . ... : ... .. . ... : ... .. . ...
ROW 1A : G-1 00 . ... : ... .. . ... : ... .. . ... : F-# 03 . ... : ... .. . ...
ROW 1B : --- .. . ... : --- .. . ... : ... .. . ... : ... .. . ... : ... .. . ...
ROW 1C : A-1 00 . ... : A-3 00 . ... : D-2 05 . ... : D-# 03 . ... : ... .. . ...
ROW 1D : --- .. . ... : ... .. . ... : ... .. . ... : ... .. . ... : ... .. . ...
ROW 1E : A-1 00 . ... : ... .. . ... : ... .. . ... : F-# 03 . ... : ... .. . ...
ROW 1F : --- .. . ... : --- .. . ... : ... .. . ... : ... .. . ... : ... .. . ...
ROW 20 : D-1 00 . ... : D-3 00 . ... : D-2 05 . ... : D-# 03 . ... : ... .. . ...
ROW 21 : --- .. . ... : ... .. . ... : ... .. . ... : F-# 03 . ... : ... .. . ...
ROW 22 : D-1 00 . ... : ... .. . ... : ... .. . ... : D-# 03 . ... : ... .. . ...
ROW 23 : --- .. . ... : --- .. . ... : ... .. . ... : F-# 03 . ... : ... .. . ...
ROW 24 : F-1 00 . ... : F-3 00 . ... : D-2 05 . ... : D-# 03 . ... : ... .. . ...
ROW 25 : --- .. . ... : ... .. . ... : ... .. . ... : F-# 03 . ... : ... .. . ...
ROW 26 : F-1 00 . ... : ... .. . ... : ... .. . ... : D-# 03 . ... : ... .. . ...
ROW 27 : --- .. . ... : --- .. . ... : ... .. . ... : F-# 03 . ... : ... .. . ...
ROW 28 : G-1 00 . ... : G-3 00 . ... : D-2 05 . ... : D-# 03 . ... : ... .. . ...
ROW 29 : --- .. . ... : ... .. . ... : ... .. . ... : F-# 03 . ... : ... .. . ...
ROW 2A : G-1 00 . ... : ... .. . ... : ... .. . ... : D-# 03 . ... : ... .. . ...
ROW 2B : --- .. . ... : --- .. . ... : ... .. . ... : F-# 03 . ... : ... .. . ...
ROW 2C : A-1 00 . ... : A-3 00 . ... : D-2 05 . ... : D-# 03 . ... : ... .. . ...
ROW 2D : --- .. . ... : ... .. . ... : ... .. . ... : F-# 03 . ... : ... .. . ...
ROW 2E : A-1 00 . ... : ... .. . ... : ... .. . ... : D-# 03 . ... : ... .. . ...
ROW 2F : --- .. . ... : --- .. . ... : ... .. . ... : F-# 03 . ... : ... .. . ...
ROW 30 : D-1 00 . ... : D-3 00 . ... : D-2 05 . ... : D-# 03 . ... : ... .. . ...
ROW 31 : --- .. . ... : ... .. . ... : ... .. . ... : F-# 03 . ... : ... .. . ...
ROW 32 : D-1 00 . ... : ... .. . ... : ... .. . ... : D-# 03 . ... : ... .. . ...
ROW 33 : --- .. . ... : --- .. . ... : ... .. . ... : F-# 03 . ... : ... .. . ...
ROW 34 : F-1 00 . ... : F-3 00 . ... : D-2 05 . ... : D-# 03 . ... : ... .. . ...
ROW 35 : --- .. . ... : ... .. . ... : ... .. . ... : F-# 03 . ... : ... .. . ...
ROW 36 : F-1 00 . ... : ... .. . ... : ... .. . ... : D-# 03 . ... : ... .. . ...
ROW 37 : --- .. . ... : --- .. . ... : ... .. . ... : F-# 03 . ... : ... .. . ...
ROW 38 : G-1 00 . ... : G-3 00 . ... : D-2 05 . ... : D-# 03 . ... : ... .. . ...
ROW 39 : --- .. . ... : ... .. . ... : ... .. . ... : F-# 03 . ... : ... .. . ...
ROW 3A : G-1 00 . ... : ... .. . ... : ... .. . ... : D-# 03 . ... : ... .. . ...
ROW 3B : --- .. . ... : --- .. . ... : ... .. . ... : F-# 03 . ... : ... .. . ...
ROW 3C : A-1 00 . ... : A-3 00 . ... : D-2 05 . ... : D-# 03 . ... : ... .. . ...
ROW 3D : --- .. . ... : ... .. . ... : ... .. . ... : F-# 03 . ... : ... .. . ...
ROW 3E : A-1 00 . ... : ... .. . ... : D-5 06 . ... : D-# 03 . ... : ... .. . ...
ROW 3F : --- .. . ... : --- .. . ... : ... .. . ... : F-# 03 . ... : ... .. . ...

PATTERN 01
ROW 00 : D-1 00 . ... : D-3 00 . ... : D-6 08 . ... : D-# 03 . ... : G-3 02 . ...
ROW 01 : --- .. . ... : ... .. . ... : ... .. . ... : ... .. . ... : ... .. . ...
ROW 02 : D-1 00 . ... : ... .. . ... : D-5 08 . ... : F-# 03 . ... : ... .. . ...
ROW 03 : --- .. . ... : --- .. . ... : C-5 08 . ... : ... .. . ... : ... .. . ...
ROW 04 : F-1 00 . ... : F-3 00 . ... : B-5 08 . ... : D-# 03 . ... : ... .. . ...
ROW 05 : --- .. . ... : ... .. . ... : D-5 08 . ... : ... .. . ... : ... .. . ...
ROW 06 : F-1 00 . ... : ... .. . ... : B-4 08 . ... : F-# 03 . ... : ... .. . ...
ROW 07 : --- .. . ... : --- .. . ... : ... .. . ... : ... .. . ... : ... .. . ...
ROW 08 : G-1 00 . ... : G-3 00 . ... : --- .. . ... : D-# 03 . ... : F-3 02 . ...
ROW 09 : --- .. . ... : ... .. . ... : ... .. . ... : ... .. . ... : ... .. . ...
ROW 0A : G-1 00 . ... : ... .. . ... : ... .. . ... : F-# 03 . ... : ... .. . ...
ROW 0B : --- .. . ... : --- .. . ... : ... .. . ... : ... .. . ... : ... .. . ...
ROW 0C : A-1 00 . ... : A-3 00 . ... : ... .. . ... : D-# 03 . ... : F-3 02 . ...
ROW 0D : --- .. . ... : ... .. . ... : ... .. . ... : ... .. . ... : ... .. . ...
ROW 0E : A-1 00 . ... : ... .. . ... : D-5 06 . ... : F-# 03 . ... : ... .. . ...
ROW 0F : --- .. . ... : --- .. . ... : ... .. . ... : ... .. . ... : ... .. . ...
ROW 10 : D-1 00 . ... : D-3 00 . ... : D-6 08 . ... : D-# 03 . ... : G-3 02 . ...
ROW 11 : --- .. . ... : ... .. . ... : ... .. . ... : ... .. . ... : ... .. . ...
ROW 12 : D-1 00 . ... : ... .. . ... : D-5 08 . ... : F-# 03 . ... : ... .. . ...
ROW 13 : --- .. . ... : --- .. . ... : C-5 08 . ... : ... .. . ... : ... .. . ...
ROW 14 : F-1 00 . ... : F-3 00 . ... : B-5 08 . ... : D-# 03 . ... : ... .. . ...
ROW 15 : --- .. . ... : ... .. . ... : D-5 08 . ... : ... .. . ... : ... .. . ...
ROW 16 : F-1 00 . ... : ... .. . ... : B-4 08 . ... : F-# 03 . ... : ... .. . ...
ROW 17 : --- .. . ... : --- .. . ... : ... .. . ... : ... .. . ... : ... .. . ...
ROW 18 : G-1 00 . ... : G-3 00 . ... : --- .. . ... : D-# 03 . ... : F-3 02 . ...
ROW 19 : --- .. . ... : ... .. . ... : ... .. . ... : ... .. . ... : ... .. . ...
ROW 1A : G-1 00 . ... : ... .. . ... : ... .. . ... : F-# 03 . ... : ... .. . ...
ROW 1B : --- .. . ... : --- .. . ... : ... .. . ... : ... .. . ... : ... .. . ...
ROW 1C : A-1 00 . ... : A-3 00 . ... : ... .. . ... : D-# 03 . ... : F-3 02 . ...
ROW 1D : --- .. . ... : ... .. . ... : ... .. . ... : ... .. . ... : ... .. . ...
ROW 1E : A-1 00 . ... : ... .. . ... : D-5 06 . ... : F-# 03 . ... : ... .. . ...
ROW 1F : --- .. . ... : --- .. . ... : ... .. . ... : ... .. . ... : ... .. . ...
ROW 20 : D-1 00 . ... : D-3 00 . ... : D-6 08 . ... : D-# 03 . ... : ... .. . ...
ROW 21 : --- .. . ... : ... .. . ... : ... .. . ... : F-# 03 . ... : ... .. . ...
ROW 22 : D-1 00 . ... : ... .. . ... : D-5 08 . ... : D-# 03 . ... : ... .. . ...
ROW 23 : --- .. . ... : --- .. . ... : C-5 08 . ... : F-# 03 . ... : ... .. . ...
ROW 24 : F-1 00 . ... : F-3 00 . ... : B-5 08 . ... : D-# 03 . ... : ... .. . ...
ROW 25 : --- .. . ... : ... .. . ... : D-5 08 . ... : F-# 03 . ... : ... .. . ...
ROW 26 : F-1 00 . ... : ... .. . ... : B-4 08 . ... : D-# 03 . ... : ... .. . ...
ROW 27 : --- .. . ... : --- .. . ... : ... .. . ... : F-# 03 . ... : ... .. . ...
ROW 28 : G-1 00 . ... : G-3 00 . ... : G-5 08 . ... : D-# 03 . ... : ... .. . ...
ROW 29 : --- .. . ... : ... .. . ... : ... .. . ... : F-# 03 . ... : ... .. . ...
ROW 2A : G-1 00 . ... : ... .. . ... : G-4 08 . ... : D-# 03 . ... : ... .. . ...
ROW 2B : --- .. . ... : --- .. . ... : F-4 08 . ... : F-# 03 . ... : ... .. . ...
ROW 2C : A-1 00 . ... : A-3 00 . ... : E-5 08 . ... : D-# 03 . ... : ... .. . ...
ROW 2D : --- .. . ... : ... .. . ... : ... .. . ... : F-# 03 . ... : ... .. . ...
ROW 2E : A-1 00 . ... : ... .. . ... : E-4 08 . ... : D-# 03 . ... : ... .. . ...
ROW 2F : --- .. . ... : --- .. . ... : ... .. . ... : F-# 03 . ... : ... .. . ...
ROW 30 : D-1 00 . ... : D-3 00 . ... : D-5 08 . ... : D-# 03 . ... : ... .. . ...
ROW 31 : --- .. . ... : ... .. . ... : ... .. . ... : F-# 03 . ... : ... .. . ...
ROW 32 : D-1 00 . ... : ... .. . ... : ... .. . ... : D-# 03 . ... : ... .. . ...
ROW 33 : --- .. . ... : --- .. . ... : ... .. . ... : F-# 03 . ... : ... .. . ...
ROW 34 : F-1 00 . ... : F-3 00 . ... : B-4 08 . ... : D-# 03 . ... : ... .. . ...
ROW 35 : --- .. . ... : ... .. . ... : ... .. . ... : F-# 03 . ... : ... .. . ...
ROW 36 : F-1 00 . ... : ... .. . ... : ... .. . ... : D-# 03 . ... : ... .. . ...
ROW 37 : --- .. . ... : --- .. . ... : ... .. . ... : F-# 03 . ... : ... .. . ...
ROW 38 : G-1 00 . ... : G-3 00 . ... : G-4 08 . ... : D-# 03 . ... : ... .. . ...
ROW 39 : --- .. . ... : ... .. . ... : ... .. . ... : F-# 03 . ... : ... .. . ...
ROW 3A : G-1 00 . ... : ... .. . ... : ... .. . ... : D-# 03 . ... : ... .. . ...
ROW 3B : --- .. . ... : --- .. . ... : ... .. . ... : F-# 03 . ... : ... .. . ...
ROW 3C : A-1 00 . ... : A-3 00 . ... : E-4 08 . ... : D-# 03 . ... : ... .. . ...
ROW 3D : --- .. . ... : ... .. . ... : D-4 06 . ... : F-# 03 . ... : ... .. . ...
ROW 3E : A-1 00 . ... : ... .. . ... : C-4 06 . ... : D-# 03 . ... : ... .. . ...
ROW 3F : --- .. . ... : --- .. . ... : ... .. . ... : F-# 03 . ... : ... .. . ...

PATTERN 02
ROW 00 : D-1 00 . ... : D-3 00 . ... : D-4 06 . ... : D-# 03 . ... : G-3 02 . ...
ROW 01 : --- .. . ... : ... .. . ... : ... .. . ... : ... .. . ... : ... .. . ...
ROW 02 : D-1 00 . ... : ... .. . ... : ... .. . ... : F-# 03 . ... : ... .. . ...
ROW 03 : --- .. . ... : --- .. . ... : ... .. . ... : ... .. . ... : ... .. . ...
ROW 04 : F-1 00 . ... : F-3 00 . ... : ... .. . ... : D-# 03 . ... : ... .. . ...
ROW 05 : --- .. . ... : ... .. . ... : ... .. . ... : ... .. . ... : ... .. . ...
ROW 06 : F-1 00 . ... : ... .. . ... : ... .. . ... : F-# 03 . ... : ... .. . ...
ROW 07 : --- .. . ... : --- .. . ... : ... .. . ... : ... .. . ... : ... .. . ...
ROW 08 : G-1 00 . ... : G-3 00 . ... : ... .. . ... : D-# 03 . ... : F-3 02 . ...
ROW 09 : --- .. . ... : ... .. . ... : ... .. . ... : ... .. . ... : ... .. . ...
ROW 0A : G-1 00 . ... : ... .. . ... : ... .. . ... : F-# 03 . ... : ... .. . ...
ROW 0B : --- .. . ... : --- .. . ... : ... .. . ... : ... .. . ... : ... .. . ...
ROW 0C : A-1 00 . ... : A-3 00 . ... : ... .. . ... : D-# 03 . ... : F-3 02 . ...
ROW 0D : --- .. . ... : ... .. . ... : ... .. . ... : ... .. . ... : ... .. . ...
ROW 0E : A-1 00 . ... : ... .. . ... : ... .. . ... : F-# 03 . ... : ... .. . ...
ROW 0F : --- .. . ... : --- .. . ... : ... .. . ... : ... .. . ... : ... .. . ...
ROW 10 : D-1 00 . ... : D-3 00 . ... : ... .. . ... : D-# 03 . ... : G-3 02 . ...
ROW 11 : --- .. . ... : ... .. . ... : ... .. . ... : ... .. . ... : ... .. . ...
ROW 12 : D-1 00 . ... : ... .. . ... : ... .. . ... : F-# 03 . ... : ... .. . ...
ROW 13 : --- .. . ... : --- .. . ... : ... .. . ... : ... .. . ... : ... .. . ...
ROW 14 : F-1 00 . ... : F-3 00 . ... : ... .. . ... : D-# 03 . ... : ... .. . ...
ROW 15 : --- .. . ... : ... .. . ... : ... .. . ... : ... .. . ... : ... .. . ...
ROW 16 : F-1 00 . ... : ... .. . ... : ... .. . ... : F-# 03 . ... : ... .. . ...
ROW 17 : --- .. . ... : --- .. . ... : ... .. . ... : ... .. . ... : ... .. . ...
ROW 18 : G-1 00 . ... : G-3 00 . ... : ... .. . ... : D-# 03 . ... : F-3 02 . ...
ROW 19 : --- .. . ... : ... .. . ... : ... .. . ... : ... .. . ... : ... .. . ...
ROW 1A : G-1 00 . ... : ... .. . ... : ... .. . ... : F-# 03 . ... : ... .. . ...
ROW 1B : --- .. . ... : --- .. . ... : ... .. . ... : ... .. . ... : ... .. . ...
ROW 1C : A-1 00 . ... : A-3 00 . ... : ... .. . ... : D-# 03 . ... : F-3 02 . ...
ROW 1D : --- .. . ... : ... .. . ... : ... .. . ... : ... .. . ... : ... .. . ...
ROW 1E : A-1 00 . ... : ... .. . ... : C-5 06 . ... : F-# 03 . ... : ... .. . ...
ROW 1F : --- .. . ... : --- .. . ... : ... .. . ... : ... .. . ... : ... .. . ...
ROW 20 : D-1 00 . ... : D-3 00 . ... : D-5 06 . ... : D-# 03 . ... : ... .. . ...
ROW 21 : --- .. . ... : ... .. . ... : ... .. . ... : F-# 03 . ... : ... .. . ...
ROW 22 : D-1 00 . ... : ... .. . ... : ... .. . ... : D-# 03 . ... : ... .. . ...
ROW 23 : --- .. . ... : --- .. . ... : ... .. . ... : F-# 03 . ... : ... .. . ...
ROW 24 : F-1 00 . ... : F-3 00 . ... : ... .. . ... : D-# 03 . ... : ... .. . ...
ROW 25 : --- .. . ... : ... .. . ... : ... .. . ... : F-# 03 . ... : ... .. . ...
ROW 26 : F-1 00 . ... : ... .. . ... : ... .. . ... : D-# 03 . ... : ... .. . ...
ROW 27 : --- .. . ... : --- .. . ... : ... .. . ... : F-# 03 . ... : ... .. . ...
ROW 28 : G-1 00 . ... : G-3 00 . ... : ... .. . ... : D-# 03 . ... : ... .. . ...
ROW 29 : --- .. . ... : ... .. . ... : ... .. . ... : F-# 03 . ... : ... .. . ...
ROW 2A : G-1 00 . ... : ... .. . ... : ... .. . ... : D-# 03 . ... : ... .. . ...
ROW 2B : --- .. . ... : --- .. . ... : ... .. . ... : F-# 03 . ... : ... .. . ...
ROW 2C : A-1 00 . ... : A-3 00 . ... : ... .. . ... : D-# 03 . ... : ... .. . ...
ROW 2D : --- .. . ... : ... .. . ... : ... .. . ... : F-# 03 . ... : ... .. . ...
ROW 2E : A-1 00 . ... : ... .. . ... : ... .. . ... : D-# 03 . ... : ... .. . ...
ROW 2F : --- .. . ... : --- .. . ... : ... .. . ... : F-# 03 . ... : ... .. . ...
ROW 30 : D-1 00 . ... : D-3 00 . ... : E-5 06 . ... : D-# 03 . ... : ... .. . ...
ROW 31 : --- .. . ... : ... .. . ... : ... .. . ... : F-# 03 . ... : ... .. . ...
ROW 32 : D-1 00 . ... : ... .. . ... : ... .. . ... : D-# 03 . ... : ... .. . ...
ROW 33 : --- .. . ... : --- .. . ... : ... .. . ... : F-# 03 . ... : ... .. . ...
ROW 34 : F-1 00 . ... : F-3 00 . ... : F-5 06 . ... : D-# 03 . ... : ... .. . ...
ROW 35 : --- .. . ... : ... .. . ... : ... .. . ... : F-# 03 . ... : ... .. . ...
ROW 36 : F-1 00 . ... : ... .. . ... : ... .. . ... : D-# 03 . ... : ... .. . ...
ROW 37 : --- .. . ... : --- .. . ... : ... .. . ... : F-# 03 . ... : ... .. . ...
ROW 38 : G-1 00 . ... : G-3 00 . ... : E-5 06 . ... : D-# 03 . ... : ... .. . ...
ROW 39 : --- .. . ... : ... .. . ... : ... .. . ... : F-# 03 . ... : ... .. . ...
ROW 3A : G-1 00 . ... : ... .. . ... : ... .. . ... : D-# 03 . ... : ... .. . ...
ROW 3B : --- .. . ... : --- .. . ... : ... .. . ... : F-# 03 . ... : ... .. . ...
ROW 3C : A-1 00 . ... : A-3 00 . ... : C-5 06 . ... : D-# 03 . ... : ... .. . ...
ROW 3D : --- .. . ... : ... .. . ... : ... .. . ... : F-# 03 . ... : ... .. . ...
ROW 3E : A-1 00 . ... : ... .. . ... : ... .. . ... : D-# 03 . ... : ... .. . ...
ROW 3F : --- .. . ... : --- .. . ... : ... .. . ... : F-# 03 . ... : ... .. . ...

PATTERN 03
ROW 00 : D-1 00 . ... : D-3 00 . ... : D-6 08 . ... : D-# 03 . ... : G-3 02 . ...
ROW 01 : --- .. . ... : ... .. . ... : ... .. . ... : ... .. . ... : ... .. . ...
ROW 02 : D-1 00 . ... : ... .. . ... : D-5 08 . ... : F-# 03 . ... : ... .. . ...
ROW 03 : --- .. . ... : --- .. . ... : C-5 08 . ... : ... .. . ... : ... .. . ...
ROW 04 : F-1 00 . ... : F-3 00 . ... : B-5 08 . ... : D-# 03 . ... : ... .. . ...
ROW 05 : --- .. . ... : ... .. . ... : D-5 08 . ... : ... .. . ... : ... .. . ...
ROW 06 : F-1 00 . ... : ... .. . ... : B-4 08 . ... : F-# 03 . ... : ... .. . ...
ROW 07 : --- .. . ... : --- .. . ... : ... .. . ... : ... .. . ... : ... .. . ...
ROW 08 : G-1 00 . ... : G-3 00 . ... : --- .. . ... : D-# 03 . ... : F-3 02 . ...
ROW 09 : --- .. . ... : ... .. . ... : ... .. . ... : ... .. . ... : ... .. . ...
ROW 0A : G-1 00 . ... : ... .. . ... : ... .. . ... : F-# 03 . ... : ... .. . ...
ROW 0B : --- .. . ... : --- .. . ... : ... .. . ... : ... .. . ... : ... .. . ...
ROW 0C : A-1 00 . ... : A-3 00 . ... : ... .. . ... : D-# 03 . ... : F-3 02 . ...
ROW 0D : --- .. . ... : ... .. . ... : ... .. . ... : ... .. . ... : ... .. . ...
ROW 0E : A-1 00 . ... : ... .. . ... : D-5 06 . ... : F-# 03 . ... : ... .. . ...
ROW 0F : --- .. . ... : --- .. . ... : ... .. . ... : ... .. . ... : ... .. . ...
ROW 10 : D-1 00 . ... : D-3 00 . ... : D-6 08 . ... : D-# 03 . ... : G-3 02 . ...
ROW 11 : --- .. . ... : ... .. . ... : ... .. . ... : ... .. . ... : ... .. . ...
ROW 12 : D-1 00 . ... : ... .. . ... : D-5 08 . ... : F-# 03 . ... : ... .. . ...
ROW 13 : --- .. . ... : --- .. . ... : C-5 08 . ... : ... .. . ... : ... .. . ...
ROW 14 : F-1 00 . ... : F-3 00 . ... : B-5 08 . ... : D-# 03 . ... : ... .. . ...
ROW 15 : --- .. . ... : ... .. . ... : D-5 08 . ... : ... .. . ... : ... .. . ...
ROW 16 : F-1 00 . ... : ... .. . ... : B-4 08 . ... : F-# 03 . ... : ... .. . ...
ROW 17 : --- .. . ... : --- .. . ... : ... .. . ... : ... .. . ... : ... .. . ...
ROW 18 : G-1 00 . ... : G-3 00 . ... : --- .. . ... : D-# 03 . ... : F-3 02 . ...
ROW 19 : --- .. . ... : ... .. . ... : ... .. . ... : ... .. . ... : ... .. . ...
ROW 1A : G-1 00 . ... : ... .. . ... : ... .. . ... : F-# 03 . ... : ... .. . ...
ROW 1B : --- .. . ... : --- .. . ... : ... .. . ... : ... .. . ... : ... .. . ...
ROW 1C : A-1 00 . ... : A-3 00 . ... : ... .. . ... : D-# 03 . ... : F-3 02 . ...
ROW 1D : --- .. . ... : ... .. . ... : ... .. . ... : ... .. . ... : ... .. . ...
ROW 1E : A-1 00 . ... : ... .. . ... : D-5 06 . ... : F-# 03 . ... : ... .. . ...
ROW 1F : --- .. . ... : --- .. . ... : ... .. . ... : ... .. . ... : ... .. . ...
ROW 20 : D-1 00 . ... : D-3 00 . ... : D-6 08 . ... : D-# 03 . ... : ... .. . ...
ROW 21 : --- .. . ... : ... .. . ... : ... .. . ... : F-# 03 . ... : ... .. . ...
ROW 22 : D-1 00 . ... : ... .. . ... : D-5 08 . ... : D-# 03 . ... : ... .. . ...
ROW 23 : --- .. . ... : --- .. . ... : C-5 08 . ... : F-# 03 . ... : ... .. . ...
ROW 24 : F-1 00 . ... : F-3 00 . ... : B-5 08 . ... : D-# 03 . ... : ... .. . ...
ROW 25 : --- .. . ... : ... .. . ... : D-5 08 . ... : F-# 03 . ... : ... .. . ...
ROW 26 : F-1 00 . ... : ... .. . ... : B-4 08 . ... : D-# 03 . ... : ... .. . ...
ROW 27 : --- .. . ... : --- .. . ... : ... .. . ... : F-# 03 . ... : ... .. . ...
ROW 28 : G-1 00 . ... : G-3 00 . ... : G-5 08 . ... : D-# 03 . ... : ... .. . ...
ROW 29 : --- .. . ... : ... .. . ... : ... .. . ... : F-# 03 . ... : ... .. . ...
ROW 2A : G-1 00 . ... : ... .. . ... : G-4 08 . ... : D-# 03 . ... : ... .. . ...
ROW 2B : --- .. . ... : --- .. . ... : F-4 08 . ... : F-# 03 . ... : ... .. . ...
ROW 2C : A-1 00 . ... : A-3 00 . ... : E-5 08 . ... : D-# 03 . ... : ... .. . ...
ROW 2D : --- .. . ... : ... .. . ... : ... .. . ... : F-# 03 . ... : ... .. . ...
ROW 2E : A-1 00 . ... : ... .. . ... : E-4 08 . ... : D-# 03 . ... : ... .. . ...
ROW 2F : --- .. . ... : --- .. . ... : ... .. . ... : F-# 03 . ... : ... .. . ...
ROW 30 : D-1 00 . ... : D-3 00 . ... : D-5 08 . ... : D-# 03 . ... : ... .. . ...
ROW 31 : --- .. . ... : ... .. . ... : ... .. . ... : F-# 03 . ... : ... .. . ...
ROW 32 : D-1 00 . ... : ... .. . ... : ... .. . ... : D-# 03 . ... : ... .. . ...
ROW 33 : --- .. . ... : --- .. . ... : ... .. . ... : F-# 03 . ... : ... .. . ...
ROW 34 : F-1 00 . ... : F-3 00 . ... : B-4 08 . ... : D-# 03 . ... : ... .. . ...
ROW 35 : --- .. . ... : ... .. . ... : ... .. . ... : F-# 03 . ... : ... .. . ...
ROW 36 : F-1 00 . ... : ... .. . ... : ... .. . ... : D-# 03 . ... : ... .. . ...
ROW 37 : --- .. . ... : --- .. . ... : ... .. . ... : F-# 03 . ... : ... .. . ...
ROW 38 : G-1 00 . ... : G-3 00 . ... : G-4 08 . ... : D-# 03 . ... : ... .. . ...
ROW 39 : --- .. . ... : ... .. . ... : ... .. . ... : F-# 03 . ... : ... .. . ...
ROW 3A : G-1 00 . ... : ... .. . ... : ... .. . ... : D-# 03 . ... : ... .. . ...
ROW 3B : --- .. . ... : --- .. . ... : ... .. . ... : F-# 03 . ... : ... .. . ...
ROW 3C : A-1 00 . ... : A-3 00 . ... : E-4 08 . ... : D-# 03 . ... : ... .. . ...
ROW 3D : --- .. . ... : ... .. . ... : D-4 06 . ... : F-# 03 . ... : ... .. . ...
ROW 3E : A-1 00 . ... : ... .. . ... : C-4 06 . ... : D-# 03 . ... : ... .. . ...
ROW 3F : --- .. . ... : --- .. . ... : ... .. . ... : F-# 03 . ... : ... .. . ...

PATTERN 04
ROW 00 : D-1 00 . ... : D-3 00 . ... : D-4 06 . ... : D-# 03 . ... : G-3 02 . ...
ROW 01 : --- .. . ... : ... .. . ... : ... .. . ... : ... .. . ... : ... .. . ...
ROW 02 : D-1 00 . ... : ... .. . ... : ... .. . ... : F-# 03 . ... : ... .. . ...
ROW 03 : --- .. . ... : --- .. . ... : ... .. . ... : ... .. . ... : ... .. . ...
ROW 04 : F-1 00 . ... : F-3 00 . ... : ... .. . ... : D-# 03 . ... : ... .. . ...
ROW 05 : --- .. . ... : ... .. . ... : ... .. . ... : ... .. . ... : ... .. . ...
ROW 06 : F-1 00 . ... : ... .. . ... : ... .. . ... : F-# 03 . ... : ... .. . ...
ROW 07 : --- .. . ... : --- .. . ... : ... .. . ... : ... .. . ... : ... .. . ...
ROW 08 : G-1 00 . ... : G-3 00 . ... : ... .. . ... : D-# 03 . ... : F-3 02 . ...
ROW 09 : --- .. . ... : ... .. . ... : ... .. . ... : ... .. . ... : ... .. . ...
ROW 0A : G-1 00 . ... : ... .. . ... : ... .. . ... : F-# 03 . ... : ... .. . ...
ROW 0B : --- .. . ... : --- .. . ... : ... .. . ... : ... .. . ... : ... .. . ...
ROW 0C : A-1 00 . ... : A-3 00 . ... : ... .. . ... : D-# 03 . ... : F-3 02 . ...
ROW 0D : --- .. . ... : ... .. . ... : ... .. . ... : ... .. . ... : ... .. . ...
ROW 0E : A-1 00 . ... : ... .. . ... : ... .. . ... : F-# 03 . ... : ... .. . ...
ROW 0F : --- .. . ... : --- .. . ... : ... .. . ... : ... .. . ... : ... .. . ...
ROW 10 : D-1 00 . ... : D-3 00 . ... : ... .. . ... : D-# 03 . ... : G-3 02 . ...
ROW 11 : --- .. . ... : ... .. . ... : ... .. . ... : ... .. . ... : ... .. . ...
ROW 12 : D-1 00 . ... : ... .. . ... : ... .. . ... : F-# 03 . ... : ... .. . ...
ROW 13 : --- .. . ... : --- .. . ... : ... .. . ... : ... .. . ... : ... .. . ...
ROW 14 : F-1 00 . ... : F-3 00 . ... : ... .. . ... : D-# 03 . ... : ... .. . ...
ROW 15 : --- .. . ... : ... .. . ... : ... .. . ... : ... .. . ... : ... .. . ...
ROW 16 : F-1 00 . ... : ... .. . ... : ... .. . ... : F-# 03 . ... : ... .. . ...
ROW 17 : --- .. . ... : --- .. . ... : ... .. . ... : ... .. . ... : ... .. . ...
ROW 18 : G-1 00 . ... : G-3 00 . ... : ... .. . ... : D-# 03 . ... : F-3 02 . ...
ROW 19 : --- .. . ... : ... .. . ... : ... .. . ... : ... .. . ... : ... .. . ...
ROW 1A : G-1 00 . ... : ... .. . ... : ... .. . ... : F-# 03 . ... : ... .. . ...
ROW 1B : --- .. . ... : --- .. . ... : ... .. . ... : ... .. . ... : ... .. . ...
ROW 1C : A-1 00 . ... : A-3 00 . ... : ... .. . ... : D-# 03 . ... : F-3 02 . ...
ROW 1D : --- .. . ... : ... .. . ... : ... .. . ... : ... .. . ... : ... .. . ...
ROW 1E : A-1 00 . ... : ... .. . ... : ... .. . ... : F-# 03 . ... : ... .. . ...
ROW 1F : --- .. . ... : --- .. . ... : ... .. . ... : ... .. . ... : ... .. . ...
ROW 20 : D-1 00 . ... : D-3 00 . ... : --- .. . ... : D-# 03 . ... : ... .. . ...
ROW 21 : --- .. . ... : ... .. . ... : ... .. . ... : F-# 03 . ... : ... .. . ...
ROW 22 : D-1 00 . ... : ... .. . ... : ... .. . ... : D-# 03 . ... : ... .. . ...
ROW 23 : --- .. . ... : --- .. . ... : ... .. . ... : F-# 03 . ... : ... .. . ...
ROW 24 : F-1 00 . ... : F-3 00 . ... : ... .. . ... : D-# 03 . ... : ... .. . ...
ROW 25 : --- .. . ... : ... .. . ... : ... .. . ... : F-# 03 . ... : ... .. . ...
ROW 26 : F-1 00 . ... : ... .. . ... : ... .. . ... : D-# 03 . ... : ... .. . ...
ROW 27 : --- .. . ... : --- .. . ... : ... .. . ... : F-# 03 . ... : ... .. . ...
ROW 28 : G-1 00 . ... : G-3 00 . ... : ... .. . ... : D-# 03 . ... : ... .. . ...
ROW 29 : --- .. . ... : ... .. . ... : ... .. . ... : F-# 03 . ... : ... .. . ...
ROW 2A : G-1 00 . ... : ... .. . ... : ... .. . ... : D-# 03 . ... : ... .. . ...
ROW 2B : --- .. . ... : --- .. . ... : ... .. . ... : F-# 03 . ... : ... .. . ...
ROW 2C : A-1 00 . ... : A-3 00 . ... : ... .. . ... : D-# 03 . ... : ... .. . ...
ROW 2D : --- .. . ... : ... .. . ... : ... .. . ... : F-# 03 . ... : ... .. . ...
ROW 2E : A-1 00 . ... : ... .. . ... : ... .. . ... : D-# 03 . ... : ... .. . ...
ROW 2F : --- .. . ... : --- .. . ... : ... .. . ... : F-# 03 . ... : ... .. . ...
ROW 30 : D-1 00 . ... : D-3 00 . ... : ... .. . ... : D-# 03 . ... : ... .. . ...
ROW 31 : --- .. . ... : ... .. . ... : ... .. . ... : F-# 03 . ... : ... .. . ...
ROW 32 : D-1 00 . ... : ... .. . ... : ... .. . ... : D-# 03 . ... : ... .. . ...
ROW 33 : --- .. . ... : --- .. . ... : ... .. . ... : F-# 03 . ... : ... .. . ...
ROW 34 : F-1 00 . ... : F-3 00 . ... : ... .. . ... : D-# 03 . ... : ... .. . ...
ROW 35 : --- .. . ... : ... .. . ... : ... .. . ... : F-# 03 . ... : ... .. . ...
ROW 36 : F-1 00 . ... : ... .. . ... : ... .. . ... : D-# 03 . ... : ... .. . ...
ROW 37 : --- .. . ... : --- .. . ... : ... .. . ... : F-# 03 . ... : ... .. . ...
ROW 38 : G-1 00 . ... : G-3 00 . ... : ... .. . ... : D-# 03 . ... : ... .. . ...
ROW 39 : --- .. . ... : ... .. . ... : ... .. . ... : F-# 03 . ... : ... .. . ...
ROW 3A : G-1 00 . ... : ... .. . ... : ... .. . ... : D-# 03 . ... : ... .. . ...
ROW 3B : --- .. . ... : --- .. . ... : ... .. . ... : F-# 03 . ... : ... .. . ...
ROW 3C : A-1 00 . ... : A-3 00 . ... : ... .. . ... : D-# 03 . ... : ... .. . ...
ROW 3D : --- .. . ... : ... .. . ... : ... .. . ... : F-# 03 . ... : ... .. . ...
ROW 3E : A-1 00 . ... : ... .. . ... : ... .. . ... : D-# 03 . ... : ... .. . ...
ROW 3F : --- .. . ... : --- .. . ... : ... .. . ... : F-# 03 . ... : ... .. . ...

TRACK  32   4 150 "death"
COLUMNS : 1 1 1 1 1

ORDER 00 : 00 00 00 00 00

PATTERN 00
ROW 00 : B-3 00 . ... : E-4 00 . ... : B-2 05 . ... : 6-# 0E . ... : ... .. . ...
ROW 01 : ... .. . ... : ... .. . ... : ... .. . ... : ... .. . ... : ... .. . ...
ROW 02 : ... .. . ... : ... .. . ... : ... .. . ... : ... .. . ... : ... .. . ...
ROW 03 : ... .. . ... : ... .. . ... : ... .. . ... : ... .. . ... : ... .. . ...
ROW 04 : A-3 00 . ... : C-4 00 . ... : A-2 05 . ... : ... .. . ... : ... .. . ...
ROW 05 : ... .. . ... : ... .. . ... : ... .. . ... : ... .. . ... : ... .. . ...
ROW 06 : G-3 00 . ... : B-3 00 . ... : G-2 05 . ... : ... .. . ... : ... .. . ...
ROW 07 : ... .. . ... : ... .. . ... : ... .. . ... : ... .. . ... : ... .. . ...
ROW 08 : F-3 00 . ... : A-3 00 . ... : F-2 05 . ... : ... .. . ... : ... .. . ...
ROW 09 : ... .. . ... : ... .. . ... : ... .. . ... : ... .. . ... : ... .. . ...
ROW 0A : ... .. . ... : ... .. . ... : ... .. . ... : ... .. . ... : ... .. . ...
ROW 0B : ... .. . ... : ... .. . ... : ... .. . ... : ... .. . ... : ... .. . ...
ROW 0C : D-3 00 . ... : F-3 00 . ... : D-2 05 . ... : ... .. . ... : ... .. . ...
ROW 0D : ... .. . ... : ... .. . ... : ... .. . ... : ... .. . ... : ... .. . ...
ROW 0E : ... .. . ... : ... .. . ... : ... .. . ... : ... .. . ... : ... .. . ...
ROW 0F : ... .. . ... : ... .. . ... : ... .. . ... : ... .. . ... : ... .. . ...
ROW 10 : ... .. . ... : ... .. . ... : ... .. . ... : ... .. . ... : ... .. . ...
ROW 11 : ... .. . ... : ... .. . ... : ... .. . ... : ... .. . ... : ... .. . ...
ROW 12 : ... .. . ... : ... .. . ... : ... .. . ... : ... .. . ... : ... .. . ...
ROW 13 : ... .. . ... : ... .. . ... : ... .. . ... : ... .. . ... : ... .. . ...
ROW 14 : ... .. . ... : ... .. . ... : ... .. . ... : ... .. . ... : ... .. . ...
ROW 15 : ... .. . ... : ... .. . ... : ... .. . ... : ... .. . ... : ... .. . ...
ROW 16 : ... .. . ... : ... .. . ... : ... .. . ... : ... .. . ... : ... .. . ...
ROW 17 : ... .. . ... : ... .. . ... : ... .. . ... : ... .. . ... : ... .. . ...
ROW 18 : ... .. . ... : ... .. . ... : ... .. . ... : ... .. . ... : ... .. . ...
ROW 19 : ... .. . ... : ... .. . ... : ... .. . ... : ... .. . ... : ... .. . ...
ROW 1A : ... .. . ... : ... .. . ... : ... .. . ... : ... .. . ... : ... .. . ...
ROW 1B : ... .. . ... : ... .. . ... : ... .. . ... : ... .. . ... : ... .. . ...
ROW 1C : ... .. . ... : ... .. . ... : ... .. . ... : ... .. . ... : ... .. . ...
ROW 1D : ... .. . ... : ... .. . ... : ... .. . ... : ... .. . ... : ... .. . ...
ROW 1E : ... .. . ... : ... .. . ... : ... .. . ... : ... .. . ... : ... .. . ...
ROW 1F : --- .. . ... : --- .. . ... : --- .. . ... : --- .. . ... : ... .. . ...

# End of export
